<?xml version="1.0" encoding="utf-8"?>
<!-- Generator: Adobe Illustrator 20.1.0, SVG Export Plug-In . SVG Version: 6.00 Build 0)  -->
<!DOCTYPE svg PUBLIC "-//W3C//DTD SVG 1.1//EN" "http://www.w3.org/Graphics/SVG/1.1/DTD/svg11.dtd">
<svg version="1.1" id="Layer_1" xmlns="http://www.w3.org/2000/svg" xmlns:xlink="http://www.w3.org/1999/xlink" x="0px" y="0px"
	 viewBox="0 0 320 180" style="enable-background:new 0 0 320 180;" xml:space="preserve">
<g>
	<path style="opacity:0.8;fill:#BCE2EE;enable-background:new    ;" d="M210.7,132.3c0-6.9-5.6-12.5-12.4-12.5c-0.5,0-1,0-1.5,0.1
		c0.7-2.8,1.2-5.8,1.2-8.8c0-18.4-14.8-33.2-33-33.2c-14.6,0-27,9.5-31.3,22.7c-2.3-0.8-4.8-1.3-7.3-1.3
		c-12.5,0-22.5,10.2-22.5,22.8c0,12.6,10.1,22.8,22.5,22.8l0,0l0,0h73v-0.1C205.7,144.3,210.7,138.8,210.7,132.3"/>
	<path style="fill:#FFFFFF;stroke:#B8D432;stroke-width:2;stroke-miterlimit:10;" d="M181.9,127.3h-16.1v37.5h-11.3v-37.5h-16.3
		l21.9-21.9L181.9,127.3z"/>
  <!-- stroke-linecap is not allowed -->
	<path style="fill:none;stroke:#A6A8AA;stroke-width:2;stroke-miterlimit:10;" d="M215.4,121.8h69.9
		c2.2,0,4-1.8,4-4s-1.8-4-4-4h-13.1c-2.2,0-4-1.8-4-4s1.8-4,4-4h4.7h1.9h6.6c2.2,0,4-1.8,4-4s0-12.9,0-12.9"/>
  <!-- stroke-linecap is not allowed -->
	<path style="fill:none;stroke:#A6A8AA;stroke-width:2;stroke-miterlimit:10;" d="M95.8,121.2
		c0,0-14.7,0-16.9,0s-4,1.8-4,4v6.6v1.9v4.7c0,2.2-1.8,4-4,4s-4-1.8-4-4V96c0-2.2-1.8-4-4-4s-4,1.8-4,4v25.7c0,2.2-1.8,4-4,4
		s-4-1.8-4-4V65.5"/>
	<path style="opacity:0.8;fill:#BCE2EE;enable-background:new    ;" d="M18.8,59.8c0,0,116,0,119.1,0c4.7,0,9-2.2,9.4-7.2
		c0.4-4.5-1.4-10.1-7.8-9.8c0,0,1.6-20.7-11-23.2c0,0-7.2-3.7-20.4,3.1c0,0-7.5-19.8-23.5-17c0,0-22.2-2.2-25.1,21.6
		c0,0-9.4-8.3-18.8-4.6c-5.9,1.9-10.6,6.5-12.5,12.4c0,0-11.6-3.4-17.2,9.3C11,44.4,8.9,56.2,18.8,59.8z"/>
	<path style="opacity:0.8;fill:#BCE2EE;enable-background:new    ;" d="M262.2,84.4c10.3,0,40.1,0,42.5,0c3.9,0,7.5-3.7,7.5-10.6
		c-0.5-4.3-3.9-7.6-8.1-8.1c0,0,0-18.2-16.2-20.2c0,0-16.2-2.8-20.2,12.1c0,0-14.3-2.7-17.8,10.5C247.6,76.9,253.4,84.4,262.2,84.4z
		"/>
</g>
</svg>
