<?xml version="1.0" encoding="utf-8"?>
<!-- Generator: Adobe Illustrator 20.1.0, SVG Export Plug-In . SVG Version: 6.00 Build 0)  -->
<!DOCTYPE svg PUBLIC "-//W3C//DTD SVG 1.1//EN" "http://www.w3.org/Graphics/SVG/1.1/DTD/svg11.dtd">
<svg version="1.1" id="Layer_1" xmlns="http://www.w3.org/2000/svg" xmlns:xlink="http://www.w3.org/1999/xlink" x="0px" y="0px"
	 viewBox="0 0 50 50" style="enable-background:new 0 0 50 50;" xml:space="preserve">
<g>
	<g>
		<path style="fill:#59B4D9;" d="M49,28.6c0-3.1-2.5-5.6-5.6-5.6c-0.2,0-0.5,0-0.7,0c0.3-1.3,0.5-2.6,0.5-4
			c0-8.3-6.6-14.9-14.8-14.9c-6.5,0-12.1,4.3-14,10.2c-1-0.4-2.1-0.6-3.3-0.6C5.5,13.7,1,18.3,1,23.9s4.5,10.2,10.1,10.2l0,0l0,0
			h32.8l0,0C46.7,33.9,49,31.5,49,28.6"/>
		<path style="opacity:0.2;fill:#FFFFFF;enable-background:new    ;" d="M16.5,34.2c-1.3-1.3-2.3-3-2.8-5c-1.3-5.5,2.1-11,7.6-12.2
			c1.1-0.3,2.3-0.3,3.4-0.2c0.5-5.1,3.6-9.7,8.3-12c-1.4-0.5-2.9-0.7-4.5-0.7c-6.5,0-12.1,4.3-14,10.2c-1-0.4-2.1-0.6-3.3-0.6
			C5.5,13.7,1,18.3,1,23.9s4.5,10.2,10.1,10.2l0,0l0,0h5.4V34.2z"/>
		<polygon style="fill:#B8D432;" points="27.3,15.6 17,25.9 24.7,25.9 24.7,46.6 30,46.6 30,25.9 37.6,25.9 		"/>
	</g>
</g>
</svg>
