<?xml version="1.0" encoding="UTF-8" standalone="no"?>
<svg
   xmlns:dc="http://purl.org/dc/elements/1.1/"
   xmlns:cc="http://creativecommons.org/ns#"
   xmlns:rdf="http://www.w3.org/1999/02/22-rdf-syntax-ns#"
   xmlns:svg="http://www.w3.org/2000/svg"
   xmlns="http://www.w3.org/2000/svg"
   viewBox="0 0 234.375 103.125"
   height="103.125"
   width="234.375"
   version="1.1"
   id="svg3336">
  <metadata
     id="metadata3342">
  </metadata>
  <defs
     id="defs3340" />
  <g
     transform="translate(-1.4362812,1.4362821)"
     id="g3346">
    <path
       id="path3374"
       d="M 129.14592,97.136297 C 124.87401,92.025718 116.0588,86.059371 108.97082,83.481305 106.01343,82.405632 101.69531,80.830201 99.375,79.980345 94.771828,78.294352 89.0625,73.256639 89.0625,70.88095 c 0,-0.821728 2.940258,-4.83075 6.533906,-8.908939 5.860804,-6.651028 6.376284,-7.544993 5.003884,-8.677825 C 99.758794,52.599571 98.27535,50.238281 97.303772,48.046875 96.332194,45.855469 95.1231,44.0625 94.616897,44.0625 92.445713,44.0625 81.52063,50.348838 75.481625,55.073013 67.235667,61.523637 59.879915,65.252877 50.843966,67.563884 37.145107,71.067462 19.613517,69.2214 8.1274167,63.065867 2.7471161,60.182501 1.6181558,57.621469 4.5555607,54.963154 6.2699709,53.411633 6.6864499,53.403476 11.393705,54.829215 19.106613,57.16531 31.145157,57.629071 39.248526,55.902265 52.358965,53.108467 58.720491,49.050046 75.521288,32.761563 101.84597,7.2396176 111.31498,2.2889491 133.59375,2.3996502 c 9.59712,0.047687 12.36272,0.4249975 18.82351,2.5680949 9.75714,3.2365243 17.8283,8.4431649 26.81911,17.3008089 6.88464,6.782681 7.42671,7.115784 12.1875,7.489274 6.78545,0.532328 8.97805,-1.047091 7.46781,-5.379374 -1.16671,-3.346837 -1.42572,-9.259545 -0.51013,-11.645529 1.41177,-3.6790268 11.2432,0.203079 15.13333,5.975661 1.19025,1.766206 2.42239,4.240417 2.73809,5.498248 0.31569,1.257831 2.19893,3.755004 4.18497,5.549275 2.20614,1.993114 4.05502,4.772368 4.75232,7.143726 0.62773,2.134778 2.31828,5.756978 3.75678,8.049335 3.3262,5.300532 3.287,7.023517 -0.24001,10.550524 -2.63736,2.637371 -3.20362,2.809279 -7.41388,2.250769 -2.50713,-0.332583 -7.02295,-1.464873 -10.03516,-2.516201 -6.25593,-2.183462 -11.29706,-1.849199 -15.32068,1.015873 -2.5164,1.791833 -7.2837,3.200836 -14.52769,4.293742 -3.77985,0.57027 -4.30604,1.019371 -12.8764,10.990051 -5.21133,6.062817 -14.08572,6.115832 -19.28429,0.115206 -3.08223,-3.557774 -2.35908,-5.449471 2.32285,-6.07638 3.79756,-0.508492 6.86572,-2.196484 6.86572,-3.777272 0,-0.433089 -2.66812,-0.538281 -5.92915,-0.233762 -3.26104,0.304521 -9.58438,0.03482 -14.05186,-0.599344 -7.98471,-1.133431 -8.19057,-1.112938 -12.11772,1.206413 -4.64494,2.743274 -11.96377,8.869466 -11.96377,10.014225 0,0.872477 5.76563,3.131045 12.0574,4.723239 5.43558,1.375527 8.21323,4.60472 10.53451,12.247044 1.59052,5.236453 1.72475,6.709819 0.77544,8.511553 -2.50985,4.7635 -4.26291,4.65572 -8.59643,-0.528553 z m 4.47432,-8.931537 c -1.92631,-5.799571 -3.73429,-7.379516 -10.45211,-9.133782 -8.92191,-2.329832 -17.23063,-6.475985 -17.23063,-8.598288 0,-3.448709 8.29541,-11.194991 19.30227,-18.024512 7.00636,-4.347302 11.53786,-7.84652 13.05767,-10.08312 1.73663,-2.555683 2.32756,-2.967004 2.32756,-1.620119 0,2.664567 -9.05023,10.958663 -16.48142,15.104425 -6.9075,3.853603 -15.39358,11.54373 -15.39358,13.949743 0,2.566884 1.97574,1.571631 7.92152,-3.990346 8.50781,-7.958643 11.04896,-8.935432 20.97862,-8.063945 4.47211,0.392499 11.50611,0.744077 15.63111,0.781284 l 7.5,0.06765 0.30465,2.661032 c 0.40923,3.5746 -2.09165,6.134032 -6.71631,6.873545 l -3.75158,0.599902 2.55577,2.198386 c 2.74562,2.361683 7.77217,2.928814 10.93863,1.234173 0.99091,-0.530317 3.26756,-3.255808 5.05924,-6.056648 3.74057,-5.84745 7.91689,-8.375234 15.19786,-9.198756 2.68164,-0.303312 7.23271,-1.824987 10.2101,-3.413811 6.36906,-3.398726 10.67779,-3.622931 18.61279,-0.968522 11.8487,3.963619 18.31715,0.753977 12.74828,-6.325693 -1.0295,-1.308799 -2.33637,-4.117528 -2.90416,-6.241621 -0.65933,-2.46654 -2.47334,-5.247826 -5.02041,-7.697379 -2.19343,-2.109467 -4.2944,-5.062592 -4.66883,-6.5625 -0.96484,-3.865091 -4.56295,-8.267342 -8.19486,-10.026329 -2.77336,-1.343178 -3.19001,-1.350833 -3.90581,-0.07177 -0.99382,1.775845 0.007,7.612932 1.77634,10.361739 1.20542,1.872565 1.10604,2.222918 -1.12925,3.981195 -3.7763,2.970442 -9.01689,4.067181 -13.57263,2.840449 -2.90452,-0.782108 -5.78215,-2.961161 -11.56683,-8.758877 C 171.13785,18.393217 167.04639,15.263021 161.6363,12.456192 150.43014,6.6422866 144.69116,5.2186095 132.65625,5.267065 112.99922,5.3462091 101.28025,11.608329 77.727413,34.618708 62.533876,49.462314 56.100613,54.055951 45.9375,57.318123 37.496996,60.027369 23.09726,60.658942 14.70745,58.687872 7.1666935,56.916277 6.5625,56.87837 6.5625,58.176866 c 0,1.51105 9.383497,5.474649 16.561132,6.995438 18.282105,3.873593 34.248363,-0.210311 51.407618,-13.149214 8.585464,-6.473854 15.592909,-10.282297 20.855953,-11.334907 2.770069,-0.554012 2.959931,-0.404486 3.562097,2.805354 0.349847,1.864806 1.85437,5.072358 3.34339,7.127892 1.48902,2.055534 2.70731,4.085302 2.70731,4.510593 0,0.425292 -2.74219,3.817915 -6.09375,7.539163 -3.351562,3.721248 -6.09375,7.311209 -6.09375,7.977691 0,2.346929 4.428197,5.324965 12.05894,8.109844 4.24181,1.548067 9.69743,3.822743 12.12359,5.054835 4.7397,2.406983 16.30394,11.263711 17.05537,13.06222 1.25841,3.012 0.87356,-4.745894 -0.43016,-8.671015 z M 225.70312,51.964 C 225.31641,51.5713 225,50.18125 225,48.875 c 0,-1.706923 0.28604,-2.088958 1.01687,-1.358127 0.55928,0.559281 0.87569,1.949331 0.70312,3.089001 -0.17255,1.13967 -0.63015,1.750827 -1.01687,1.358126 z m -7.60361,-12.301987 c -1.12046,-1.120459 -0.60535,-3.099513 0.80674,-3.099513 0.77344,0 1.40625,0.607914 1.40625,1.350922 0,1.566228 -1.33808,2.623505 -2.21299,1.748591 z m -9.94153,-12.412881 c -0.53376,-0.997352 -0.97048,-2.705802 -0.97048,-3.796555 0,-1.090754 -0.69801,-3.333333 -1.55112,-4.983508 -1.48928,-2.880686 -1.48335,-2.944247 0.14857,-1.594069 1.94126,1.606103 5.10126,8.100342 5.13196,10.546875 0.0275,2.186222 -1.54928,2.087499 -2.75893,-0.172743 z"
       style="fill:#eaf8d0" />
    <path
       id="path3372"
       d="M 129.14592,97.136297 C 124.87401,92.025718 116.0588,86.059371 108.97082,83.481305 106.01343,82.405632 101.69531,80.830201 99.375,79.980345 94.771828,78.294352 89.0625,73.256639 89.0625,70.88095 c 0,-0.821728 2.940258,-4.83075 6.533906,-8.908939 5.860804,-6.651028 6.376284,-7.544993 5.003884,-8.677825 -0.841496,-0.694615 -2.32494,-3.055905 -3.296518,-5.247311 -0.971578,-2.191406 -2.274113,-3.980254 -2.894513,-3.975217 -2.543214,0.02065 -10.995047,4.80234 -18.688105,10.572939 C 62.943258,64.229359 53.603538,67.930539 39.375,69.047994 30.103283,69.77616 18.294365,67.532821 10.3125,63.526995 5.2768144,60.999757 4.1671537,60.020182 3.9215897,57.885294 3.5082626,54.291907 5.4906053,53.809281 13.109871,55.64829 21.051892,57.565201 34.455818,57.633614 41.521256,55.793301 53.149381,52.76456 59.349476,48.598129 75.239728,33.134671 95.500969,13.417624 101.7034,8.9437066 114.91007,4.5198062 c 5.45941,-1.8287623 8.36646,-2.1687879 18.21493,-2.1305143 10.14483,0.039426 12.73593,0.3843402 19.29226,2.5680948 9.76715,3.2532 17.83707,8.4621653 26.81911,17.3111673 6.88464,6.782681 7.42671,7.115784 12.1875,7.489274 6.78545,0.532328 8.97805,-1.047091 7.46781,-5.379374 -1.16671,-3.346837 -1.42572,-9.259545 -0.51013,-11.645529 1.41177,-3.6790268 11.2432,0.203079 15.13333,5.975661 1.19025,1.766206 2.42239,4.240417 2.73809,5.498248 0.31569,1.257831 2.19893,3.755004 4.18497,5.549275 2.20614,1.993114 4.05502,4.772368 4.75232,7.143726 0.62773,2.134778 2.31828,5.756978 3.75678,8.049335 3.3262,5.300532 3.287,7.023517 -0.24001,10.550524 -2.63736,2.637371 -3.20362,2.809279 -7.41388,2.250769 -2.50713,-0.332583 -7.02295,-1.464873 -10.03516,-2.516201 -6.25593,-2.183462 -11.29706,-1.849199 -15.32068,1.015873 -2.5164,1.791833 -7.2837,3.200836 -14.52769,4.293742 -3.77985,0.57027 -4.30604,1.019371 -12.8764,10.990051 -5.21133,6.062817 -14.08572,6.115832 -19.28429,0.115206 -3.08223,-3.557774 -2.35908,-5.449471 2.32285,-6.07638 3.79756,-0.508492 6.86572,-2.196484 6.86572,-3.777272 0,-0.433089 -2.66812,-0.538281 -5.92915,-0.233762 -3.26104,0.304521 -9.58438,0.03482 -14.05186,-0.599344 -7.98471,-1.133431 -8.19057,-1.112938 -12.11772,1.206413 -4.64494,2.743274 -11.96377,8.869466 -11.96377,10.014225 0,0.872477 5.76563,3.131045 12.0574,4.723239 5.43558,1.375527 8.21323,4.60472 10.53451,12.247044 1.59052,5.236453 1.72475,6.709819 0.77544,8.511553 -2.50985,4.7635 -4.26291,4.65572 -8.59643,-0.528553 z m 4.47432,-8.931537 c -1.92631,-5.799571 -3.73429,-7.379516 -10.45211,-9.133782 -8.92191,-2.329832 -17.23063,-6.475985 -17.23063,-8.598288 0,-3.448709 8.29541,-11.194991 19.30227,-18.024512 7.00636,-4.347302 11.53786,-7.84652 13.05767,-10.08312 1.73663,-2.555683 2.32756,-2.967004 2.32756,-1.620119 0,2.664567 -9.05023,10.958663 -16.48142,15.104425 -6.9075,3.853603 -15.39358,11.54373 -15.39358,13.949743 0,2.566884 1.97574,1.571631 7.92152,-3.990346 8.50781,-7.958643 11.04896,-8.935432 20.97862,-8.063945 4.47211,0.392499 11.50611,0.744077 15.63111,0.781284 l 7.5,0.06765 0.30465,2.661032 c 0.40923,3.5746 -2.09165,6.134032 -6.71631,6.873545 l -3.75158,0.599902 2.55577,2.198386 c 2.74562,2.361683 7.77217,2.928814 10.93863,1.234173 0.99091,-0.530317 3.26756,-3.255808 5.05924,-6.056648 3.74057,-5.84745 7.91689,-8.375234 15.19786,-9.198756 2.68164,-0.303312 7.23271,-1.824987 10.2101,-3.413811 6.36906,-3.398726 10.67779,-3.622931 18.61279,-0.968522 11.8487,3.963619 18.31715,0.753977 12.74828,-6.325693 -1.0295,-1.308799 -2.33637,-4.117528 -2.90416,-6.241621 -0.65933,-2.46654 -2.47334,-5.247826 -5.02041,-7.697379 -2.19343,-2.109467 -4.2944,-5.062592 -4.66883,-6.5625 -0.96484,-3.865091 -4.56295,-8.267342 -8.19486,-10.026329 -2.77336,-1.343178 -3.19001,-1.350833 -3.90581,-0.07177 -0.99382,1.775845 0.007,7.612932 1.77634,10.361739 1.20542,1.872565 1.10604,2.222918 -1.12925,3.981195 -3.7763,2.970442 -9.01689,4.067181 -13.57263,2.840449 -2.90452,-0.782108 -5.78215,-2.961161 -11.56683,-8.758877 C 171.13785,18.393217 167.04639,15.263021 161.6363,12.456192 150.43014,6.6422866 144.69116,5.2186095 132.65625,5.267065 112.9611,5.3463625 101.22509,11.641373 76.936763,35.154117 64.060661,47.619057 61.157421,49.949679 54.286903,53.336647 46.213927,57.316391 35.439527,60 27.534256,60 25.237565,60 20.106708,59.315442 16.132352,58.47876 6.8187778,56.518064 6.3750622,56.493221 5.8774961,57.904593 c -0.5245146,1.487812 7.4625229,5.221039 15.6608249,7.320037 4.569506,1.169923 8.740079,1.448467 16.875,1.127045 C 52.68185,65.787907 60.551709,62.833415 73.039811,53.352244 81.632828,46.828285 93.469471,40.3125 96.72795,40.3125 c 1.114847,0 1.818,1.030963 2.241009,3.285797 0.339029,1.807189 1.834711,4.967598 3.323731,7.023132 1.48902,2.055534 2.70731,4.076445 2.70731,4.490913 0,0.414468 -2.96504,4.074007 -6.588975,8.13231 l -6.588974,7.378733 2.508674,2.618492 c 1.495612,1.561078 5.66535,3.76071 10.325595,5.446985 4.29931,1.555671 9.82685,3.849176 12.28343,5.096677 4.78334,2.42908 16.35512,11.281892 17.11065,13.090236 1.25841,3.012 0.87356,-4.745894 -0.43016,-8.671015 z M 225.70312,51.964 C 225.31641,51.5713 225,50.18125 225,48.875 c 0,-1.706923 0.28604,-2.088958 1.01687,-1.358127 0.55928,0.559281 0.87569,1.949331 0.70312,3.089001 -0.17255,1.13967 -0.63015,1.750827 -1.01687,1.358126 z m -7.60361,-12.301987 c -1.12046,-1.120459 -0.60535,-3.099513 0.80674,-3.099513 0.77344,0 1.40625,0.607914 1.40625,1.350922 0,1.566228 -1.33808,2.623505 -2.21299,1.748591 z m -9.94153,-12.412881 c -0.53376,-0.997352 -0.97048,-2.705802 -0.97048,-3.796555 0,-1.090754 -0.69801,-3.333333 -1.55112,-4.983508 -1.48928,-2.880686 -1.48335,-2.944247 0.14857,-1.594069 1.94126,1.606103 5.10126,8.100342 5.13196,10.546875 0.0275,2.186222 -1.54928,2.087499 -2.75893,-0.172743 z"
       style="fill:#d1f0eb" />
    <path
       id="path3370"
       d="M 131.54653,99.470175 C 130.89641,96.984131 120.64307,88.908695 113.90625,85.576851 110.8125,84.046768 105.35258,81.779316 101.77308,80.538067 95.11605,78.229634 89.0625,73.657762 89.0625,70.938556 c 0,-0.822965 2.921725,-4.744809 6.492722,-8.715211 l 6.492718,-7.218912 -2.200974,-2.892841 C 98.636428,50.520529 97.355466,48.054607 97.000387,46.631767 96.645309,45.208927 96.085116,43.879412 95.755519,43.67729 94.408144,42.851032 83.388035,48.87978 75.721154,54.637444 62.953193,64.225911 53.610865,67.929964 39.375,69.047994 30.103283,69.77616 18.294365,67.532821 10.3125,63.526995 5.2768144,60.999757 4.1671537,60.020182 3.9215897,57.885294 3.5082626,54.291907 5.4906053,53.809281 13.109871,55.64829 21.051892,57.565201 34.455818,57.633614 41.521256,55.793301 53.073887,52.784223 59.446527,48.534549 74.626897,33.716397 100.60907,8.3541882 111.40784,2.5382981 132.65625,2.4635634 c 17.83307,-0.062723 32.04938,5.7731693 44.835,18.4050586 4.05593,4.007174 8.15036,7.701031 9.09871,8.208574 2.29303,1.227194 8.70717,1.174376 11.49235,-0.09463 2.18498,-0.995544 2.20378,-1.10629 0.8737,-5.146478 C 197.14712,18.341503 198.08547,11.25 200.62141,11.25 c 5.32241,0 13.2547,6.365533 15.11446,12.129107 0.59269,1.836803 2.47049,4.508083 4.1729,5.936177 1.86634,1.565609 3.8586,4.636653 5.01779,7.734873 1.05737,2.826089 3.00426,6.773003 4.32643,8.770921 2.70269,4.084046 2.48732,7.2552 -0.68771,10.125551 -2.47396,2.236568 -8.77466,2.015348 -16.13392,-0.566471 -7.42848,-2.6061 -10.13204,-2.457788 -17.103,0.938235 -3.25246,1.584491 -8.50576,3.247298 -11.674,3.695126 -6.28809,0.888815 -8.84163,2.635729 -12.70599,8.692331 -4.2503,6.661482 -11.06237,8.896724 -17.6241,5.782982 -5.91135,-2.805123 -6.87996,-8.863832 -1.41706,-8.863832 3.48715,0 6.53029,-1.478635 6.53029,-3.173004 0,-0.942429 -3.47085,-1.360509 -14.76563,-1.778587 l -14.76562,-0.546553 -4.21875,2.696646 c -5.17854,3.310155 -10.7135,8.894219 -9.98475,10.073353 0.29619,0.479251 3.82409,1.832135 7.83977,3.006411 4.01568,1.174276 8.24614,2.997476 9.40102,4.051556 2.5564,2.33326 5.86896,10.851101 5.86896,15.0913 0,4.823015 -5.2013,8.495358 -6.26597,4.424053 z m 3.39976,-2.807316 c 0.67511,-1.261462 0.54242,-3.146284 -0.45889,-6.518041 -2.04635,-6.890852 -4.94322,-9.880122 -10.90706,-11.255003 -5.79989,-1.337086 -17.64284,-6.589807 -17.64284,-7.825157 0,-4.300475 7.75653,-11.612828 19.84452,-18.708126 4.6921,-2.754125 9.9997,-6.696188 11.79467,-8.760141 3.07722,-3.538365 3.17797,-3.582929 1.76423,-0.78045 -1.78323,3.534991 -6.90216,7.756253 -16.65083,13.73092 -7.32916,4.491828 -13.94009,10.799006 -13.94009,13.29959 0,2.471635 1.96057,1.526297 7.53174,-3.631637 2.99124,-2.769352 7.40322,-5.986236 9.8044,-7.148629 4.12751,-1.998093 4.75431,-2.050764 11.48458,-0.965057 3.91534,0.631612 10.47709,1.000839 14.58168,0.820503 6.18768,-0.271856 7.63392,-0.05999 8.4639,1.239939 1.81552,2.843533 -0.64346,6.248227 -5.43903,7.530848 -4.80343,1.284722 -5.11568,1.83731 -2.1304,3.770209 5.8876,3.812077 10.48234,2.429373 16.0509,-4.830224 5.32478,-6.941808 7.55908,-8.33905 14.99018,-9.374305 4.18948,-0.583652 7.706,-1.739312 10.08696,-3.314956 5.23091,-3.461652 10.57477,-3.952827 17.82593,-1.638449 11.33663,3.618353 13.97165,3.633397 15.8677,0.09059 0.79655,-1.488371 0.44945,-2.73376 -1.76496,-6.332648 -1.51609,-2.463954 -3.06185,-5.870071 -3.43503,-7.56915 -0.39577,-1.801883 -2.34029,-4.703615 -4.66626,-6.963235 -2.19326,-2.1307 -4.25807,-5.001642 -4.58849,-6.37987 -1.08227,-4.514385 -8.08076,-11.087881 -11.80474,-11.087881 -1.44617,0 -1.13554,7.587538 0.42219,10.3125 1.98488,3.472185 1.72282,4.522039 -1.64063,6.572775 -3.29896,2.011418 -10.1919,2.487931 -14.16084,0.978946 -1.28137,-0.487179 -5.64313,-4.178586 -9.69279,-8.203125 C 164.50246,11.763724 152.37542,5.9676202 137.26118,4.9517788 128.77365,4.3813235 119.59101,5.6895501 111.90952,8.5635617 103.20356,11.820878 93.469375,19.193482 77.477229,34.642335 64.054173,47.609377 61.138006,49.959351 54.26585,53.347079 46.214161,57.316275 35.43089,60 27.534256,60 25.237565,60 20.106708,59.315442 16.132352,58.47876 6.8187778,56.518064 6.3750622,56.493221 5.8774961,57.904593 c -0.5245146,1.487812 7.4625229,5.221039 15.6608249,7.320037 4.569506,1.169923 8.740079,1.448467 16.875,1.127045 14.268529,-0.563768 22.138388,-3.51826 34.62649,-12.999431 8.424938,-6.396351 20.415975,-13.039744 23.53617,-13.039744 0.94725,0 1.864528,1.465255 2.571103,4.107034 0.604154,2.258869 2.168216,5.378362 3.475686,6.932208 1.30748,1.553847 2.36761,3.186151 2.35585,3.627342 -0.0117,0.441191 -2.95128,4.072652 -6.532261,8.069913 -4.19235,4.679685 -6.315616,7.776608 -5.962533,8.696725 0.767581,2.000284 7.053727,5.441312 15.287714,8.368475 3.84466,1.366767 9.32904,3.941201 12.1875,5.720964 5.98873,3.728756 13.16596,10.029342 13.16596,11.557842 0,1.565053 0.7549,1.262419 1.82129,-0.730144 z M 225,50.680328 c 0,-0.485194 0.42187,-1.142904 0.9375,-1.461578 0.51562,-0.318674 0.9375,0.0783 0.9375,0.882172 0,0.803867 -0.42188,1.461578 -0.9375,1.461578 -0.51563,0 -0.9375,-0.396977 -0.9375,-0.882172 z m -7.5,-12.789703 c 0,-1.655556 2.01821,-1.36724 2.59765,0.371094 0.20411,0.612304 -0.29687,1.113281 -1.11328,1.113281 -0.8164,0 -1.48437,-0.667969 -1.48437,-1.484375 z m -8.85563,-10.9375 c -0.19761,-0.644531 -1.00643,-3.187273 -1.79738,-5.650537 -1.50368,-4.682966 -0.55707,-5.180547 1.62186,-0.852514 1.89193,3.75796 2.66746,7.674926 1.51959,7.674926 -0.54163,0 -1.14647,-0.527344 -1.34407,-1.171875 z"
       style="fill:#cef0d1" />
    <path
       id="path3368"
       d="M 131.27182,98.963634 C 130.34247,96.519272 123.16185,90.445095 116.78095,86.705638 114.64028,85.45112 108.9442,82.958151 104.12301,81.165708 94.870266,77.72569 90,74.124403 90,70.72255 c 0,-1.201166 2.503107,-4.843179 6.038306,-8.785719 l 6.038304,-6.734064 -2.757054,-4.347428 C 97.803178,48.464254 96.5625,45.746756 96.5625,44.816455 c 0,-0.9303 -0.409847,-1.691455 -0.910772,-1.691455 -2.5876,0 -11.766121,5.136707 -19.245478,10.770625 -4.640625,3.495609 -11.390625,7.75319 -15,9.461293 C 54.238624,66.74893 43.041868,69.375 35.746994,69.375 28.102327,69.375 16.798769,66.774339 10.3125,63.523172 5.2755963,60.998482 4.1672131,60.020698 3.9215897,57.885294 3.5034719,54.250258 5.4436499,53.831452 13.697201,55.775132 c 5.302008,1.248602 9.448433,1.538699 17.045216,1.192535 16.706791,-0.761283 27.3819,-6.02867 41.382425,-20.419209 C 97.417331,10.551392 111.32001,2.6738107 132.1875,2.5155321 c 18.04537,-0.136873 32.47667,5.6802272 45.14709,18.1983139 4.1421,4.0923 8.30702,7.855807 9.25537,8.36335 2.29303,1.227194 8.70717,1.174376 11.49235,-0.09463 2.18498,-0.995544 2.20378,-1.10629 0.8737,-5.146478 C 197.14712,18.341503 198.08547,11.25 200.62141,11.25 c 5.32241,0 13.2547,6.365533 15.11446,12.129107 0.59269,1.836803 2.47049,4.508083 4.1729,5.936177 1.86634,1.565609 3.8586,4.636653 5.01779,7.734873 1.05737,2.826089 3.00426,6.773003 4.32643,8.770921 2.70269,4.084046 2.48732,7.2552 -0.68771,10.125551 -2.47396,2.236568 -8.77466,2.015348 -16.13392,-0.566471 -7.42848,-2.6061 -10.13204,-2.457788 -17.103,0.938235 -3.25246,1.584491 -8.50576,3.247298 -11.674,3.695126 -6.28809,0.888815 -8.84163,2.635729 -12.70599,8.692331 -4.2503,6.661482 -11.06237,8.896724 -17.6241,5.782982 -5.91135,-2.805123 -6.87996,-8.863832 -1.41706,-8.863832 3.48403,0 6.53029,-1.478242 6.53029,-3.168927 0,-0.935511 -3.49097,-1.364291 -14.65825,-1.800413 -16.79678,-0.65597 -16.8021,-0.654495 -25.15152,6.976406 l -5.34894,4.88863 2.38374,1.248963 c 1.31104,0.68693 5.03816,1.919648 8.28247,2.739375 7.18521,1.815454 9.53392,3.853772 11.98292,10.3993 2.35942,6.306142 2.41861,10.755269 0.17014,12.790113 -2.38301,2.156583 -3.80951,1.939393 -4.82624,-0.734813 z m 3.2919,-8.521914 c -2.31679,-7.969515 -3.65765,-9.517912 -9.7212,-11.225863 -7.11823,-2.005031 -16.79355,-6.082569 -18.06332,-7.612546 -0.76736,-0.924605 -0.51004,-2.074885 1.0168,-4.545366 2.55554,-4.134947 7.60991,-8.249259 17.829,-14.512976 4.38281,-2.686415 9.39276,-6.221302 11.13322,-7.855305 2.356,-2.2119 2.9003,-2.457842 2.1305,-0.962659 -1.4717,2.858487 -5.51525,6.055786 -14.59355,11.53933 -6.91374,4.176103 -16.48267,12.911704 -16.48267,15.047257 0,2.492308 3.28033,1.008099 8.42487,-3.811891 3.24033,-3.03591 7.76419,-6.426389 10.05303,-7.534397 3.8964,-1.886214 4.61506,-1.941397 11.28032,-0.866176 3.91534,0.631612 10.47709,1.000839 14.58168,0.820503 6.18768,-0.271856 7.63392,-0.05999 8.4639,1.239939 1.81552,2.843533 -0.64346,6.248227 -5.43903,7.530848 -4.80343,1.284722 -5.11568,1.83731 -2.1304,3.770209 5.8876,3.812077 10.48234,2.429373 16.0509,-4.830224 5.32478,-6.941808 7.55908,-8.33905 14.99018,-9.374305 4.18948,-0.583652 7.706,-1.739312 10.08696,-3.314956 5.23091,-3.461652 10.57477,-3.952827 17.82593,-1.638449 11.33663,3.618353 13.97165,3.633397 15.8677,0.09059 0.79655,-1.488371 0.44945,-2.73376 -1.76496,-6.332648 -1.51609,-2.463954 -3.06185,-5.870071 -3.43503,-7.56915 -0.39577,-1.801883 -2.34029,-4.703615 -4.66626,-6.963235 -2.19326,-2.1307 -4.25807,-5.001642 -4.58849,-6.37987 -1.08227,-4.514385 -8.08076,-11.087881 -11.80474,-11.087881 -1.44617,0 -1.13554,7.587538 0.42219,10.3125 1.98488,3.472185 1.72282,4.522039 -1.64063,6.572775 -3.29896,2.011418 -10.1919,2.487931 -14.16084,0.978946 -1.28137,-0.487179 -5.64313,-4.178586 -9.69279,-8.203125 C 168.18757,15.42597 160.02568,10.263616 150.46875,7.2355469 145.11804,5.5402008 141.74233,5.1610067 132.1875,5.1820099 121.9629,5.2044854 119.61098,5.5181503 113.74111,7.6421121 103.39827,11.384583 94.688634,17.835052 77.68311,34.347116 63.965067,47.667093 61.140065,49.958433 54.24561,53.357108 46.214384,57.316163 35.422563,60 27.534256,60 25.237565,60 20.106708,59.315442 16.132352,58.47876 6.8187778,56.518064 6.3750622,56.493221 5.8774961,57.904593 c -0.5090979,1.444082 7.3471389,5.174512 15.1788469,7.207474 7.203273,1.869833 21.909313,1.873891 29.137314,0.0081 8.397016,-2.167622 16.008954,-6.095876 24.265,-12.522318 7.126265,-5.547028 16.093128,-10.527753 21.269899,-11.814555 2.274507,-0.565381 2.490141,-0.34043 3.054038,3.186009 0.355912,2.225745 1.766476,5.115207 3.412076,6.989437 1.54293,1.757304 2.80533,3.493701 2.80533,3.858662 0,0.36496 -2.95312,3.934101 -6.5625,7.931422 -3.609375,3.997322 -6.5625,7.718803 -6.5625,8.269958 0,2.011402 5.717644,5.733301 11.92185,7.760523 3.49767,1.142863 9.15754,3.528492 12.57749,5.301396 6.71771,3.482471 16.08137,10.913308 16.60637,13.178533 0.28692,1.238006 0.48789,1.236506 1.73741,-0.01303 1.25894,-1.25894 1.24211,-2.000634 -0.1544,-6.804442 z M 225,50.680328 c 0,-0.485194 0.42187,-1.142904 0.9375,-1.461578 0.51562,-0.318674 0.9375,0.0783 0.9375,0.882172 0,0.803867 -0.42188,1.461578 -0.9375,1.461578 -0.51563,0 -0.9375,-0.396977 -0.9375,-0.882172 z m -7.5,-12.789703 c 0,-1.655556 2.01821,-1.36724 2.59765,0.371094 0.20411,0.612304 -0.29687,1.113281 -1.11328,1.113281 -0.8164,0 -1.48437,-0.667969 -1.48437,-1.484375 z m -8.85563,-10.9375 c -0.19761,-0.644531 -1.00643,-3.187273 -1.79738,-5.650537 -1.50368,-4.682966 -0.55707,-5.180547 1.62186,-0.852514 1.89193,3.75796 2.66746,7.674926 1.51959,7.674926 -0.54163,0 -1.14647,-0.527344 -1.34407,-1.171875 z"
       style="fill:#b2e7ed" />
    <path
       id="path3366"
       d="M 131.27182,98.963634 C 130.34247,96.519272 123.16185,90.445095 116.78095,86.705638 114.64028,85.45112 108.9442,82.958151 104.12301,81.165708 94.870266,77.72569 90,74.124403 90,70.72255 c 0,-1.201166 2.503107,-4.843179 6.038306,-8.785719 l 6.038304,-6.734064 -2.757054,-4.347428 C 97.803178,48.464254 96.5625,45.746756 96.5625,44.816455 c 0,-0.9303 -0.409847,-1.691455 -0.910772,-1.691455 -2.5876,0 -11.766121,5.136707 -19.245478,10.770625 -4.640625,3.495609 -11.390625,7.75319 -15,9.461293 C 54.238624,66.74893 43.041868,69.375 35.746994,69.375 28.102327,69.375 16.798769,66.774339 10.3125,63.523172 5.2755963,60.998482 4.1672131,60.020698 3.9215897,57.885294 3.5034719,54.250258 5.4436499,53.831452 13.697201,55.775132 c 5.302008,1.248602 9.448433,1.538699 17.045216,1.192535 16.706791,-0.761283 27.3819,-6.02867 41.382425,-20.419209 C 90.092813,18.079953 102.31563,9.0062098 114.25264,5.2744159 c 9.64852,-3.0163594 18.13837,-3.7807529 27.03505,-2.4341307 14.82385,2.243775 26.58933,8.3952778 37.84314,19.7860468 5.38804,5.453601 7.97654,7.390924 10.51029,7.866259 3.20995,0.602191 9.52543,-0.766222 10.45147,-2.264586 0.23716,-0.383737 -0.20303,-2.538594 -0.97821,-4.788574 -1.45334,-4.218345 -1.05374,-10.715226 0.72674,-11.815622 1.50364,-0.9293 8.69976,2.260341 11.35595,5.033459 1.3494,1.408815 3.15287,4.235795 4.00771,6.282177 0.85484,2.046382 3.14917,5.268512 5.09851,7.160288 1.94935,1.891776 4.06132,5.069025 4.69327,7.060555 0.63195,1.991529 2.15688,5.383585 3.38872,7.537903 6.03687,10.557585 -0.92774,15.264431 -15.72363,10.626404 -8.16534,-2.559567 -11.57382,-2.374124 -17.92826,0.975403 -2.9961,1.579294 -7.61099,3.105454 -10.3125,3.410373 -6.94132,0.78347 -9.5462,2.411057 -13.33298,8.330741 -4.99636,7.810572 -12.03847,10.039548 -18.28318,5.787013 -5.83871,-3.976051 -6.3012,-8.203125 -0.89752,-8.203125 3.48403,0 6.53029,-1.478242 6.53029,-3.168927 0,-0.935511 -3.49097,-1.364291 -14.65825,-1.800413 -16.79678,-0.65597 -16.8021,-0.654495 -25.15152,6.976406 l -5.34894,4.88863 2.38374,1.248963 c 1.31104,0.68693 5.03816,1.919648 8.28247,2.739375 7.18521,1.815454 9.53392,3.853772 11.98292,10.3993 2.35942,6.306142 2.41861,10.755269 0.17014,12.790113 -2.38301,2.156583 -3.80951,1.939393 -4.82624,-0.734813 z m 3.2919,-8.521914 c -2.31679,-7.969515 -3.65765,-9.517912 -9.7212,-11.225863 -7.11823,-2.005031 -16.79355,-6.082569 -18.06332,-7.612546 -0.76736,-0.924605 -0.51004,-2.074885 1.0168,-4.545366 2.55554,-4.134947 7.60991,-8.249259 17.829,-14.512976 4.38281,-2.686415 9.39276,-6.221302 11.13322,-7.855305 2.356,-2.2119 2.9003,-2.457842 2.1305,-0.962659 -1.4717,2.858487 -5.51525,6.055786 -14.59355,11.53933 -6.91374,4.176103 -16.48267,12.911704 -16.48267,15.047257 0,2.492308 3.28033,1.008099 8.42487,-3.811891 3.24033,-3.03591 7.75461,-6.421753 10.03175,-7.524094 3.8991,-1.887523 4.57946,-1.935931 11.68138,-0.831139 4.18712,0.651358 10.65135,0.937894 14.53409,0.644242 6.735,-0.509367 7.03135,-0.444602 8.03389,1.755731 0.88261,1.937116 0.70941,2.637496 -1.13871,4.604729 -1.1988,1.276068 -3.58873,2.584472 -5.31095,2.907562 -1.72223,0.323091 -3.13132,0.952637 -3.13132,1.398991 0,1.693065 5.15149,4.092114 8.59323,4.001868 4.21728,-0.110581 5.48588,-1.043099 10.31859,-7.584893 4.2374,-5.735952 7.48194,-7.651891 14.18545,-8.376692 2.67931,-0.289693 6.98085,-1.687349 9.55898,-3.1059 7.37954,-4.060415 9.67432,-4.231608 19.1906,-1.43164 9.96611,2.932326 13.0408,2.817568 14.92613,-0.557092 1.24872,-2.235157 1.18377,-2.692595 -0.7723,-5.439655 -1.17462,-1.649603 -2.92335,-5.192059 -3.88605,-7.872123 -1.14488,-3.187208 -3.05654,-6.016754 -5.52626,-8.17966 -2.07673,-1.818748 -3.77587,-3.864364 -3.77587,-4.545816 0,-4.521519 -7.25333,-12.30362 -11.46762,-12.30362 -2.14142,0 -2.28088,6.067962 -0.25113,10.925853 0.77344,1.851096 1.40625,3.516471 1.40625,3.700834 0,1.061064 -7.93382,4.123313 -10.68287,4.123313 -5.34383,0 -8.04343,-1.586192 -16.45945,-9.670993 C 168.06624,15.236427 160.21691,10.391876 150,6.9123098 145.98797,5.5459366 142.13922,5.1596908 132.65625,5.1717555 121.89038,5.1854524 119.684,5.4724132 113.74111,7.6318577 103.38462,11.395057 94.676334,17.846998 77.68311,34.347116 63.965067,47.667093 61.140065,49.958433 54.24561,53.357108 46.214384,57.316163 35.422563,60 27.534256,60 25.237565,60 20.106708,59.315442 16.132352,58.47876 6.8187778,56.518064 6.3750622,56.493221 5.8774961,57.904593 c -0.5090979,1.444082 7.3471389,5.174512 15.1788469,7.207474 7.203273,1.869833 21.909313,1.873891 29.137314,0.0081 8.397016,-2.167622 16.008954,-6.095876 24.265,-12.522318 7.126265,-5.547028 16.093128,-10.527753 21.269899,-11.814555 2.274507,-0.565381 2.490141,-0.34043 3.054038,3.186009 0.355912,2.225745 1.766476,5.115207 3.412076,6.989437 1.54293,1.757304 2.80533,3.493701 2.80533,3.858662 0,0.36496 -2.95312,3.934101 -6.5625,7.931422 -3.609375,3.997322 -6.5625,7.718803 -6.5625,8.269958 0,2.011402 5.717644,5.733301 11.92185,7.760523 3.49767,1.142863 9.15754,3.528492 12.57749,5.301396 6.71771,3.482471 16.08137,10.913308 16.60637,13.178533 0.28692,1.238006 0.48789,1.236506 1.73741,-0.01303 1.25894,-1.25894 1.24211,-2.000634 -0.1544,-6.804442 z M 225,50.680328 c 0,-0.485194 0.42187,-1.142904 0.9375,-1.461578 0.51562,-0.318674 0.9375,0.0783 0.9375,0.882172 0,0.803867 -0.42188,1.461578 -0.9375,1.461578 -0.51563,0 -0.9375,-0.396977 -0.9375,-0.882172 z m -7.32031,-12.313141 c 0.18476,-0.554296 0.73672,-1.007812 1.22656,-1.007812 0.48984,0 1.0418,0.453516 1.22656,1.007812 0.18477,0.554297 -0.36718,1.007813 -1.22656,1.007813 -0.85938,0 -1.41133,-0.453516 -1.22656,-1.007813 z M 208.91041,27.1875 c -1.9726,-5.755427 -3.31245,-10.3125 -3.03204,-10.3125 0.99746,0 4.1789,7.951453 3.8736,9.68135 -0.25696,1.455938 -0.49713,1.636065 -0.84156,0.63115 z"
       style="fill:#cdf0ab" />
    <path
       id="path3364"
       d="M 131.27182,98.963634 C 130.34247,96.519272 123.16185,90.445095 116.78095,86.705638 114.64028,85.45112 108.9442,82.958151 104.12301,81.165708 94.870266,77.72569 90,74.124403 90,70.72255 c 0,-1.201166 2.503107,-4.843179 6.038306,-8.785719 l 6.038304,-6.734064 -2.757054,-4.347428 C 97.803178,48.464254 96.5625,45.746756 96.5625,44.816455 c 0,-0.9303 -0.467025,-1.691455 -1.037841,-1.691455 -2.352783,0 -13.171075,5.910277 -18.74109,10.238678 -6.02153,4.679271 -8.283752,5.516484 -4.980946,1.843371 C 76.429168,50.06178 93.158856,40.3125 97.36155,40.3125 c 0.459975,0 1.104394,1.676494 1.43205,3.725542 0.344719,2.155752 1.77779,5.071827 3.40107,6.92064 1.54293,1.757303 2.80533,3.4937 2.80533,3.858661 0,0.364961 -2.95312,3.934101 -6.5625,7.931423 -3.609375,3.997322 -6.5625,7.718802 -6.5625,8.269957 0,2.011403 5.717644,5.733301 11.92185,7.760523 3.49767,1.142863 9.15754,3.528492 12.57749,5.301397 6.43966,3.338329 15.89773,10.749619 16.79481,13.160335 0.44496,1.195725 0.67276,1.185694 1.71967,-0.07575 0.99012,-1.193025 0.92858,-2.411006 -0.34283,-6.784522 -2.29798,-7.904774 -3.64921,-9.459495 -9.70347,-11.16483 -7.11823,-2.005032 -16.79355,-6.08257 -18.06332,-7.612546 -0.76736,-0.924605 -0.51004,-2.074886 1.0168,-4.545366 2.55554,-4.134948 7.60991,-8.249259 17.829,-14.512976 4.38281,-2.686415 9.39276,-6.221303 11.13322,-7.855305 2.356,-2.2119 2.9003,-2.457842 2.1305,-0.962659 -1.4717,2.858486 -5.51525,6.055786 -14.59355,11.539329 -6.91374,4.176085 -16.48267,12.911686 -16.48267,15.047239 0,2.492308 3.28033,1.008099 8.42487,-3.811891 3.24033,-3.03591 7.75461,-6.421753 10.03175,-7.524094 3.8991,-1.887523 4.57946,-1.935931 11.68138,-0.831139 4.18712,0.651358 10.65135,0.937894 14.53409,0.644242 6.735,-0.509367 7.03135,-0.444602 8.03389,1.755731 0.88261,1.937116 0.70941,2.637496 -1.13871,4.604729 -1.1988,1.276068 -3.58873,2.584472 -5.31095,2.907562 -1.72223,0.323091 -3.13132,0.952637 -3.13132,1.398991 0,1.693065 5.15149,4.092114 8.59323,4.001868 4.21728,-0.110581 5.48588,-1.043099 10.31859,-7.584893 4.2374,-5.735952 7.48194,-7.651891 14.18545,-8.376692 2.67931,-0.289693 6.98085,-1.687349 9.55898,-3.1059 7.37954,-4.060415 9.67432,-4.231608 19.1906,-1.43164 9.96611,2.932326 13.0408,2.817568 14.92613,-0.557092 1.24872,-2.235157 1.18377,-2.692595 -0.7723,-5.439655 -1.17462,-1.649603 -2.92335,-5.192059 -3.88605,-7.872123 -1.14488,-3.187208 -3.05654,-6.016754 -5.52626,-8.17966 -2.07673,-1.818748 -3.77587,-3.864364 -3.77587,-4.545816 0,-4.521519 -7.25333,-12.30362 -11.46762,-12.30362 -2.14142,0 -2.28088,6.067962 -0.25113,10.925853 0.77344,1.851096 1.40625,3.516471 1.40625,3.700834 0,1.061064 -7.93382,4.123313 -10.68287,4.123313 -5.34383,0 -8.04343,-1.586192 -16.45945,-9.670993 C 168.06624,15.236427 160.21691,10.391876 150,6.9123098 145.98797,5.5459366 142.13922,5.1596908 132.65625,5.1717555 121.89038,5.1854524 119.684,5.4724132 113.74111,7.6318577 104.22195,11.090798 95.310347,17.360359 82.333874,29.727724 c -10.24413,9.763277 -14.271457,12.694788 -10.945123,7.967009 2.902111,-4.124824 22.331356,-21.45008 28.764839,-25.649906 12.12648,-7.9162494 27.26505,-11.30379446 41.1341,-9.2045418 14.82385,2.243775 26.58933,8.3952778 37.84314,19.7860468 5.38804,5.453601 7.97654,7.390924 10.51029,7.866259 3.20995,0.602191 9.52543,-0.766222 10.45147,-2.264586 0.23716,-0.383737 -0.20303,-2.538594 -0.97821,-4.788574 -1.45334,-4.218345 -1.05374,-10.715226 0.72674,-11.815622 1.50364,-0.9293 8.69976,2.260341 11.35595,5.033459 1.3494,1.408815 3.15287,4.235795 4.00771,6.282177 0.85484,2.046382 3.14917,5.268512 5.09851,7.160288 1.94935,1.891776 4.06132,5.069025 4.69327,7.060555 0.63195,1.991529 2.15688,5.383585 3.38872,7.537903 6.03687,10.557585 -0.92774,15.264431 -15.72363,10.626404 -8.16534,-2.559567 -11.57382,-2.374124 -17.92826,0.975403 -2.9961,1.579294 -7.61099,3.105454 -10.3125,3.410373 -6.94132,0.78347 -9.5462,2.411057 -13.33298,8.330741 -4.99636,7.810572 -12.03847,10.039548 -18.28318,5.787013 -5.83871,-3.976051 -6.3012,-8.203125 -0.89752,-8.203125 3.48403,0 6.53029,-1.478242 6.53029,-3.168927 0,-0.935511 -3.49097,-1.364291 -14.65825,-1.800413 -16.79678,-0.65597 -16.8021,-0.654495 -25.15152,6.976406 l -5.34894,4.88863 2.38374,1.248963 c 1.31104,0.68693 5.03816,1.919648 8.28247,2.739375 7.18521,1.815454 9.53392,3.853772 11.98292,10.3993 2.35942,6.306142 2.41861,10.755269 0.17014,12.790113 -2.38301,2.156583 -3.80951,1.939393 -4.82624,-0.734813 z M 26.755236,68.380781 C 13.691863,66.363976 4.4123,62.089064 3.9215897,57.86177 3.5078079,54.297187 5.5805812,53.778762 13.015668,55.587236 c 3.411695,0.829844 8.217011,1.767675 10.67848,2.084069 C 29.176986,58.376062 41.021773,56.677042 47.34375,54.279 52.812828,52.204478 52.5,52.259618 52.5,53.370142 c 0,1.461018 -9.620858,4.570936 -17.44518,5.63911 -7.688662,1.049653 -18.933143,0.208674 -24.252865,-1.81388 -2.9040033,-1.1041 -5.176955,-0.683049 -5.176955,0.959 0,1.246303 10.116935,5.871892 15.9375,7.286826 7.832107,1.903924 16.183909,2.21604 23.671875,0.884644 7.44388,-1.323557 10.06191,-0.566907 3.75,1.083806 -5.547517,1.450807 -16.128126,1.913046 -22.229139,0.971133 z M 225,50.680328 c 0,-0.485194 0.42187,-1.142904 0.9375,-1.461578 0.51562,-0.318674 0.9375,0.0783 0.9375,0.882172 0,0.803867 -0.42188,1.461578 -0.9375,1.461578 -0.51563,0 -0.9375,-0.396977 -0.9375,-0.882172 z m -7.32031,-12.313141 c 0.18476,-0.554296 0.73672,-1.007812 1.22656,-1.007812 0.48984,0 1.0418,0.453516 1.22656,1.007812 0.18477,0.554297 -0.36718,1.007813 -1.22656,1.007813 -0.85938,0 -1.41133,-0.453516 -1.22656,-1.007813 z M 208.91041,27.1875 c -1.9726,-5.755427 -3.31245,-10.3125 -3.03204,-10.3125 0.99746,0 4.1789,7.951453 3.8736,9.68135 -0.25696,1.455938 -0.49713,1.636065 -0.84156,0.63115 z"
       style="fill:#afe7ce" />
    <path
       id="path3362"
       d="m 131.25,99.041222 c 0,-2.115356 -9.03262,-9.572103 -15.91732,-13.140308 -3.36266,-1.742804 -9.00103,-4.112247 -12.52971,-5.265429 C 95.426297,78.224769 90,74.014522 90,70.701705 c 0,-1.462593 2.158302,-4.516973 6.276834,-8.882838 5.352956,-5.674415 6.109916,-6.884411 5.142736,-8.220697 -3.342389,-4.617954 -4.850423,-7.362293 -4.853564,-8.832545 -0.0019,-0.902344 -0.470531,-1.640625 -1.041347,-1.640625 -2.352783,0 -13.171075,5.910277 -18.74109,10.238678 -6.02153,4.679271 -8.283752,5.516484 -4.980947,1.843371 3.245529,-3.609414 13.30257,-10.254167 19.062175,-12.594503 7.054209,-2.866383 7.572703,-2.860203 7.572703,0.09026 0,2.924018 1.95195,6.852805 4.59152,9.241583 1.08404,0.981042 1.97098,2.125758 1.97098,2.543812 0,0.418054 -2.95312,4.105934 -6.5625,8.195288 -3.609375,4.089354 -6.5625,7.863172 -6.5625,8.386263 0,2.102843 6.020925,5.79205 14.26204,8.738794 10.59985,3.79015 26.98796,14.505763 26.98796,17.646482 0,1.717556 1.72496,1.057106 2.34549,-0.898031 0.77295,-2.435344 -1.78792,-11.220305 -4.1439,-14.215436 -1.22456,-1.556782 -3.51919,-2.706507 -6.92112,-3.467824 -2.79906,-0.626403 -8.11493,-2.588957 -11.81305,-4.361232 l -6.72385,-3.222319 1.4422,-2.788903 c 1.94472,-3.760684 7.23299,-8.773815 13.05089,-12.371887 2.63703,-1.630863 7.10818,-4.485741 9.9359,-6.344176 7.62686,-5.012525 7.84116,-5.134005 7.1857,-4.073457 -0.53226,0.861219 -3.38725,2.826202 -19.27719,13.267754 -4.47227,2.938805 -10.39357,9.418289 -10.39357,11.373342 0,0.383096 0.66645,0.952278 1.481,1.264851 0.97749,0.375097 2.96958,-0.922043 5.85937,-3.815305 2.40811,-2.41099 6.21311,-5.548827 8.45557,-6.972971 l 4.07718,-2.589351 16.04559,0.417979 c 17.11725,0.445895 18.79429,0.956909 16.59944,5.05803 -1.32554,2.476791 -3.92831,3.783908 -7.53464,3.783908 -3.69256,0 -3.34014,1.55541 1.02626,4.529433 2.37284,1.616179 4.02467,2.055483 6.33951,1.685991 3.8513,-0.614743 5.09005,-1.617336 9.68754,-7.840726 4.2374,-5.735952 7.48194,-7.651891 14.18545,-8.376692 2.67931,-0.289693 6.98085,-1.687349 9.55898,-3.1059 7.37954,-4.060415 9.67432,-4.231608 19.1906,-1.43164 9.96611,2.932326 13.0408,2.817568 14.92613,-0.557092 1.24872,-2.235157 1.18377,-2.692595 -0.7723,-5.439655 -1.17462,-1.649603 -2.92335,-5.192059 -3.88605,-7.872123 -1.14488,-3.187208 -3.05654,-6.016754 -5.52626,-8.17966 -2.07673,-1.818748 -3.77587,-3.864364 -3.77587,-4.545816 0,-4.521519 -7.25333,-12.30362 -11.46762,-12.30362 -2.14142,0 -2.28088,6.067962 -0.25113,10.925853 0.77344,1.851096 1.40625,3.516471 1.40625,3.700834 0,1.061064 -7.93382,4.123313 -10.68287,4.123313 -5.33614,0 -8.16993,-1.614762 -15.56713,-8.870533 C 168.50504,15.425514 160.67252,10.341389 151.71336,7.4065726 145.88955,5.4988309 142.98837,5.15625 132.65625,5.15625 c -10.36733,0 -13.14322,0.3299802 -18.58675,2.2094799 C 105.04188,10.482711 95.396925,17.277846 82.347425,29.714809 72.091463,39.489363 68.061357,42.424018 71.388751,37.694733 74.243217,33.637627 93.669245,16.277857 99.923738,12.194879 110.54588,5.2606692 117.91878,3.28125 133.125,3.28125 c 9.88704,0 13.78445,0.3828211 17.8125,1.74963 12.14171,4.1199527 22.9643,11.108052 29.84989,19.273954 5.50543,6.529112 13.05295,8.394589 18.25251,4.511366 1.4231,-1.062825 1.43223,-1.507762 0.1091,-5.313794 -1.48684,-4.276949 -1.10877,-10.765583 0.69212,-11.878597 1.50364,-0.9293 8.69976,2.260341 11.35595,5.033459 1.3494,1.408815 3.15287,4.235795 4.00771,6.282177 0.85484,2.046382 3.14917,5.268512 5.09851,7.160288 1.94935,1.891776 4.06132,5.069025 4.69327,7.060555 0.63195,1.991529 2.15688,5.383585 3.38872,7.537903 6.03687,10.557585 -0.92774,15.264431 -15.72363,10.626404 -8.16534,-2.559567 -11.57382,-2.374124 -17.92826,0.975403 -2.9961,1.579294 -7.61099,3.105454 -10.3125,3.410373 -6.94276,0.783632 -9.53104,2.401989 -13.54656,8.470136 -5.52894,8.355193 -13.18795,10.010692 -19.95812,4.313961 -3.89868,-3.28052 -3.5407,-6.339799 0.76705,-6.555211 3.68105,-0.184071 7.81225,-2.656762 7.18496,-4.300497 -0.32189,-0.843478 -2.73366,-1.089196 -8.64173,-0.880442 -4.50739,0.159263 -10.57871,-0.08664 -13.49185,-0.546456 -6.6608,-1.05135 -9.58709,-0.09042 -16.37547,5.377336 -7.30881,5.886948 -7.80675,7.140832 -3.54314,8.92228 1.88179,0.786263 5.79379,2.045894 8.69333,2.799181 6.32661,1.643623 8.57786,4.092608 10.943,11.904131 2.09419,6.916648 1.23346,10.476738 -2.64149,10.9256 -1.77565,0.20569 -2.56087,-0.13134 -2.56087,-1.099168 z M 26.755236,68.380781 C 13.691863,66.363976 4.4123,62.089064 3.9215897,57.86177 3.5078079,54.297187 5.5805812,53.778762 13.015668,55.587236 c 3.411695,0.829844 8.217011,1.767675 10.67848,2.084069 C 29.176986,58.376062 41.021773,56.677042 47.34375,54.279 52.812828,52.204478 52.5,52.259618 52.5,53.370142 c 0,1.461018 -9.620858,4.570936 -17.44518,5.63911 -7.688662,1.049653 -18.933143,0.208674 -24.252865,-1.81388 -2.9040033,-1.1041 -5.176955,-0.683049 -5.176955,0.959 0,1.246303 10.116935,5.871892 15.9375,7.286826 7.832107,1.903924 16.183909,2.21604 23.671875,0.884644 7.44388,-1.323557 10.06191,-0.566907 3.75,1.083806 -5.547517,1.450807 -16.128126,1.913046 -22.229139,0.971133 z M 225,50.680328 c 0,-0.485194 0.42187,-1.142904 0.9375,-1.461578 0.51562,-0.318674 0.9375,0.0783 0.9375,0.882172 0,0.803867 -0.42188,1.461578 -0.9375,1.461578 -0.51563,0 -0.9375,-0.396977 -0.9375,-0.882172 z m -7.32031,-12.313141 c 0.18476,-0.554296 0.73672,-1.007812 1.22656,-1.007812 0.48984,0 1.0418,0.453516 1.22656,1.007812 0.18477,0.554297 -0.36718,1.007813 -1.22656,1.007813 -0.85938,0 -1.41133,-0.453516 -1.22656,-1.007813 z M 208.91041,27.1875 c -1.9726,-5.755427 -3.31245,-10.3125 -3.03204,-10.3125 0.99746,0 4.1789,7.951453 3.8736,9.68135 -0.25696,1.455938 -0.49713,1.636065 -0.84156,0.63115 z"
       style="fill:#d1f294" />
    <path
       id="path3360"
       d="m 131.25,99.041222 c 0,-2.115356 -9.03262,-9.572103 -15.91732,-13.140308 -3.36266,-1.742804 -9.00103,-4.112247 -12.52971,-5.265429 C 95.426297,78.224769 90,74.014522 90,70.701705 c 0,-1.462593 2.158302,-4.516973 6.276834,-8.882838 5.352956,-5.674415 6.109916,-6.884411 5.142736,-8.220697 -3.342389,-4.617954 -4.850423,-7.362293 -4.853564,-8.832545 -0.0019,-0.902344 -0.470531,-1.640625 -1.041347,-1.640625 -2.352783,0 -13.171075,5.910277 -18.74109,10.238678 -6.02153,4.679271 -8.283752,5.516484 -4.980947,1.843371 3.245529,-3.609414 13.30257,-10.254167 19.062175,-12.594503 7.054209,-2.866383 7.572703,-2.860203 7.572703,0.09026 0,2.924018 1.95195,6.852805 4.59152,9.241583 1.08404,0.981042 1.97098,2.125758 1.97098,2.543812 0,0.418054 -2.95312,4.105934 -6.5625,8.195288 -3.609375,4.089354 -6.5625,7.863172 -6.5625,8.386263 0,2.102843 6.020925,5.79205 14.26204,8.738794 10.59985,3.79015 26.98796,14.505763 26.98796,17.646482 0,1.717556 1.72496,1.057106 2.34549,-0.898031 0.77295,-2.435344 -1.78792,-11.220305 -4.1439,-14.215436 -1.22456,-1.556782 -3.51919,-2.706507 -6.92112,-3.467824 -2.79906,-0.626403 -8.11493,-2.588957 -11.81305,-4.361232 l -6.72385,-3.222319 1.4422,-2.788903 c 1.94472,-3.760684 7.23299,-8.773815 13.05089,-12.371887 2.63703,-1.630863 7.10818,-4.485741 9.9359,-6.344176 7.62686,-5.012525 7.84116,-5.134005 7.1857,-4.073457 -0.53226,0.861219 -3.38725,2.826202 -19.27719,13.267754 -4.47227,2.938805 -10.39357,9.418289 -10.39357,11.373342 0,0.383096 0.66645,0.952278 1.481,1.264851 0.97749,0.375097 2.96958,-0.922043 5.85937,-3.815305 2.40811,-2.41099 6.21311,-5.548827 8.45557,-6.972971 l 4.07718,-2.589351 16.04559,0.417979 c 17.11725,0.445895 18.79429,0.956909 16.59944,5.05803 -1.32554,2.476791 -3.92831,3.783908 -7.53464,3.783908 -3.69256,0 -3.34014,1.55541 1.02626,4.529433 2.37284,1.616179 4.02467,2.055483 6.33951,1.685991 3.8513,-0.614743 5.09005,-1.617336 9.68754,-7.840726 4.2374,-5.735952 7.48194,-7.651891 14.18545,-8.376692 2.67931,-0.289693 6.98085,-1.687349 9.55898,-3.1059 7.37954,-4.060415 9.67432,-4.231608 19.1906,-1.43164 9.96611,2.932326 13.0408,2.817568 14.92613,-0.557092 1.24872,-2.235157 1.18377,-2.692595 -0.7723,-5.439655 -1.17462,-1.649603 -2.92335,-5.192059 -3.88605,-7.872123 -1.14488,-3.187208 -3.05654,-6.016754 -5.52626,-8.17966 -2.07673,-1.818748 -3.77587,-3.864364 -3.77587,-4.545816 0,-4.521519 -7.25333,-12.30362 -11.46762,-12.30362 -2.14142,0 -2.28088,6.067962 -0.25113,10.925853 0.77344,1.851096 1.40625,3.516471 1.40625,3.700834 0,1.061064 -7.93382,4.123313 -10.68287,4.123313 -5.33614,0 -8.16993,-1.614762 -15.56713,-8.870533 C 168.50504,15.425514 160.67252,10.341389 151.71336,7.4065726 145.88955,5.4988309 142.98837,5.15625 132.65625,5.15625 c -10.36733,0 -13.14322,0.3299802 -18.58675,2.2094799 C 105.04188,10.482711 95.396925,17.277846 82.347425,29.714809 72.091463,39.489363 68.061357,42.424018 71.388751,37.694733 74.243217,33.637627 93.669245,16.277857 99.923738,12.194879 110.54588,5.2606692 117.91878,3.28125 133.125,3.28125 c 9.88704,0 13.78445,0.3828211 17.8125,1.74963 12.14171,4.1199527 22.9643,11.108052 29.84989,19.273954 5.50543,6.529112 13.05295,8.394589 18.25251,4.511366 1.4231,-1.062825 1.43223,-1.507762 0.1091,-5.313794 -1.48684,-4.276949 -1.10877,-10.765583 0.69212,-11.878597 1.50364,-0.9293 8.69976,2.260341 11.35595,5.033459 1.3494,1.408815 3.15287,4.235795 4.00771,6.282177 0.85484,2.046382 3.14917,5.268512 5.09851,7.160288 1.94935,1.891776 4.06132,5.069025 4.69327,7.060555 0.63195,1.991529 2.15688,5.383585 3.38872,7.537903 6.03687,10.557585 -0.92774,15.264431 -15.72363,10.626404 -8.16534,-2.559567 -11.57382,-2.374124 -17.92826,0.975403 -2.9961,1.579294 -7.61099,3.105454 -10.3125,3.410373 -6.94276,0.783632 -9.53104,2.401989 -13.54656,8.470136 -5.52894,8.355193 -13.18795,10.010692 -19.95812,4.313961 -3.89868,-3.28052 -3.5407,-6.339799 0.76705,-6.555211 3.68105,-0.184071 7.81225,-2.656762 7.18496,-4.300497 -0.32189,-0.843478 -2.73366,-1.089196 -8.64173,-0.880442 -4.50739,0.159263 -10.57871,-0.08664 -13.49185,-0.546456 -6.6608,-1.05135 -9.58709,-0.09042 -16.37547,5.377336 -7.30881,5.886948 -7.80675,7.140832 -3.54314,8.92228 1.88179,0.786263 5.79379,2.045894 8.69333,2.799181 6.32661,1.643623 8.57786,4.092608 10.943,11.904131 2.09419,6.916648 1.23346,10.476738 -2.64149,10.9256 -1.77565,0.20569 -2.56087,-0.13134 -2.56087,-1.099168 z M 225,50.680328 c 0,-0.485194 0.42187,-1.142904 0.9375,-1.461578 0.51562,-0.318674 0.9375,0.0783 0.9375,0.882172 0,0.803867 -0.42188,1.461578 -0.9375,1.461578 -0.51563,0 -0.9375,-0.396977 -0.9375,-0.882172 z m -7.32031,-12.313141 c 0.18476,-0.554296 0.73672,-1.007812 1.22656,-1.007812 0.48984,0 1.0418,0.453516 1.22656,1.007812 0.18477,0.554297 -0.36718,1.007813 -1.22656,1.007813 -0.85938,0 -1.41133,-0.453516 -1.22656,-1.007813 z M 208.91041,27.1875 c -1.9726,-5.755427 -3.31245,-10.3125 -3.03204,-10.3125 0.99746,0 4.1789,7.951453 3.8736,9.68135 -0.25696,1.455938 -0.49713,1.636065 -0.84156,0.63115 z"
       style="fill:#8bdbea" />
    <path
       id="path3358"
       d="m 131.25,99.041222 c 0,-2.115356 -9.03262,-9.572103 -15.91732,-13.140308 -3.36266,-1.742804 -9.00103,-4.112247 -12.52971,-5.265429 C 95.426297,78.224769 90,74.014522 90,70.701705 c 0,-1.462593 2.158302,-4.516973 6.276834,-8.882838 5.352956,-5.674415 6.109916,-6.884411 5.142736,-8.220697 -3.342389,-4.617954 -4.850423,-7.362293 -4.853564,-8.832545 -0.0019,-0.902344 -0.470531,-1.640625 -1.041347,-1.640625 -2.352783,0 -13.171075,5.910277 -18.74109,10.238678 -6.02153,4.679271 -8.283752,5.516484 -4.980947,1.843371 3.245529,-3.609414 13.30257,-10.254167 19.062175,-12.594503 7.054209,-2.866383 7.572703,-2.860203 7.572703,0.09026 0,2.924018 1.95195,6.852805 4.59152,9.241583 1.08404,0.981042 1.97098,2.125758 1.97098,2.543812 0,0.418054 -2.95312,4.105934 -6.5625,8.195288 -3.609375,4.089354 -6.5625,7.863172 -6.5625,8.386263 0,2.102843 6.020925,5.79205 14.26204,8.738794 10.59985,3.79015 26.98796,14.505763 26.98796,17.646482 0,1.717556 1.72496,1.057106 2.34549,-0.898031 0.77295,-2.435344 -1.78792,-11.220305 -4.1439,-14.215436 -1.22456,-1.556782 -3.51919,-2.706507 -6.92112,-3.467824 -2.79906,-0.626403 -8.11493,-2.588957 -11.81305,-4.361232 l -6.72385,-3.222319 1.4422,-2.788903 c 1.94472,-3.760684 7.23299,-8.773815 13.05089,-12.371887 2.63703,-1.630863 7.10818,-4.485741 9.9359,-6.344176 7.62686,-5.012525 7.84116,-5.134005 7.1857,-4.073457 -0.53226,0.861219 -3.38725,2.826202 -19.27719,13.267754 -4.47227,2.938805 -10.39357,9.418289 -10.39357,11.373342 0,0.383096 0.66645,0.952278 1.481,1.264851 0.97749,0.375097 2.96958,-0.922043 5.85937,-3.815305 2.40811,-2.41099 6.21311,-5.548827 8.45557,-6.972971 l 4.07718,-2.589351 16.04559,0.417979 c 17.11725,0.445895 18.79429,0.956909 16.59944,5.05803 -1.32554,2.476791 -3.92831,3.783908 -7.53464,3.783908 -3.69256,0 -3.34014,1.55541 1.02626,4.529433 4.5219,3.079936 8.80121,2.283959 12.83595,-2.387561 7.82641,-9.061614 9.30566,-10.462492 11.48256,-10.874167 1.28038,-0.242136 4.85922,-0.907035 7.95297,-1.477555 3.09375,-0.570521 6.88399,-1.967397 8.42274,-3.10417 4.05785,-2.997767 11.59301,-3.329977 19.16305,-0.844863 7.41019,2.432643 11.47992,2.509992 13.51891,0.256938 2.09512,-2.315088 1.95749,-3.815409 -0.71016,-7.741213 -1.24395,-1.830625 -2.71754,-5.021205 -3.27466,-7.090176 -0.66011,-2.45147 -2.4847,-5.141222 -5.23828,-7.722082 -2.32394,-2.178173 -4.22693,-4.67537 -4.22886,-5.549324 -0.009,-4.221255 -7.24076,-11.420198 -11.48087,-11.429256 -1.3226,-0.0028 -1.64062,0.823271 -1.64062,4.261802 0,2.345919 0.62926,5.482157 1.39835,6.969419 1.3306,2.573091 1.28057,2.796765 -1.0326,4.616306 -3.01401,2.370815 -7.71768,3.311293 -12.28018,2.455364 -2.6261,-0.492661 -5.32169,-2.443186 -11.01563,-7.970889 C 168.43037,15.403901 160.70612,10.352393 151.71336,7.4065726 145.88955,5.4988309 142.98837,5.15625 132.65625,5.15625 c -10.36733,0 -13.14322,0.3299802 -18.58675,2.2094799 C 105.04188,10.482711 95.396925,17.277846 82.347425,29.714809 76.149876,35.621449 70.863626,40.238626 70.600203,39.975203 69.739679,39.11468 72.496179,36.043645 82.932213,26.236029 95.230341,14.67845 104.22335,8.6022275 113.55402,5.5460812 c 6.01303,-1.9694908 8.62627,-2.2595435 20.03973,-2.2242825 11.94657,0.036909 13.72512,0.2686475 19.80902,2.5810447 10.39463,3.950845 15.17958,7.0214886 23.78473,15.2633816 4.38281,4.197794 8.89024,8.113611 10.01649,8.701814 4.67257,2.440309 14.32127,-0.13979 12.89075,-3.447032 -1.0499,-2.427263 -1.52238,-12.684969 -0.64355,-13.971562 1.28432,-1.880222 7.71425,0.653497 11.65238,4.591627 1.9042,1.904199 3.85087,4.860666 4.32594,6.569928 0.47507,1.709262 2.58447,4.823725 4.68757,6.921027 2.1031,2.097301 4.11349,5.050426 4.46752,6.5625 0.35405,1.512073 1.85797,4.684594 3.34206,7.050048 3.26443,5.2031 3.41292,8.294773 0.52854,11.004506 -2.77947,2.611175 -6.97855,2.626549 -15.30096,0.05601 -8.35371,-2.580198 -12.43135,-2.453417 -17.54882,0.545621 -2.28214,1.33742 -6.83243,2.895341 -10.11175,3.462045 -8.27162,1.42943 -10.55977,2.833017 -14.61934,8.967741 -5.52894,8.355193 -13.18795,10.010693 -19.95812,4.313962 -3.89868,-3.280521 -3.5407,-6.3398 0.76705,-6.555211 3.68105,-0.184072 7.81225,-2.656763 7.18496,-4.300497 -0.32189,-0.843479 -2.73366,-1.089196 -8.64173,-0.880442 -4.50739,0.159262 -10.57871,-0.08664 -13.49185,-0.546457 -6.6608,-1.05135 -9.58709,-0.09042 -16.37547,5.377336 -7.30881,5.886948 -7.80675,7.140833 -3.54314,8.92228 1.88179,0.786263 5.79379,2.045894 8.69333,2.799181 6.32661,1.643623 8.57786,4.092609 10.943,11.904132 2.09419,6.916647 1.23346,10.476737 -2.64149,10.925608 -1.77565,0.20569 -2.56087,-0.13134 -2.56087,-1.099173 z m 94.76152,-48.963097 c 0.045,-1.092134 0.26713,-1.314281 0.5664,-0.566406 0.27081,0.676758 0.23751,1.485351 -0.074,1.796875 -0.31153,0.311523 -0.5331,-0.242188 -0.4924,-1.230469 z M 217.96875,38.4375 c -0.31868,-0.515625 0.1032,-0.9375 0.9375,-0.9375 0.8343,0 1.25618,0.421875 0.9375,0.9375 -0.31868,0.515625 -0.74055,0.9375 -0.9375,0.9375 -0.19695,0 -0.61882,-0.421875 -0.9375,-0.9375 z M 208.8086,27.558593 c -0.37599,-0.375976 -0.6836,-1.695703 -0.6836,-2.932725 0,-1.237023 -0.46397,-3.116059 -1.03103,-4.175636 -0.64785,-1.210509 -0.67327,-1.705389 -0.0684,-1.331559 0.52945,0.327218 1.44922,2.069305 2.04393,3.871305 1.10539,3.349348 0.9657,5.795229 -0.26091,4.568615 z"
       style="fill:#aee7b2" />
    <path
       id="path3356"
       d="m 131.25,99.041222 c 0,-2.125434 -9.02947,-9.564899 -16.15169,-13.307517 -7.22005,-3.794034 -8.58799,-6.002112 -1.95768,-3.160028 6.48114,2.778139 19.98437,12.806879 19.98437,14.84222 0,1.748334 1.71762,1.119347 2.34549,-0.8589 0.83952,-2.645063 -1.97037,-11.676011 -4.47147,-14.371302 -1.2778,-1.377018 -4.46579,-2.875885 -8.18652,-3.848979 -6.01775,-1.57384 -15.70058,-6.024729 -13.28536,-6.106853 0.68524,-0.0233 3.21649,-2.015323 5.625,-4.42672 2.40851,-2.411396 6.21384,-5.549565 8.4563,-6.973709 l 4.07719,-2.589351 16.04558,0.417979 c 17.11725,0.445895 18.79429,0.956909 16.59944,5.05803 -1.32554,2.476791 -3.92831,3.783908 -7.53464,3.783908 -3.69256,0 -3.34014,1.55541 1.02626,4.529433 4.5219,3.079936 8.80121,2.283959 12.83595,-2.387561 7.82641,-9.061614 9.30566,-10.462492 11.48256,-10.874167 1.28038,-0.242136 4.85922,-0.907035 7.95297,-1.477555 3.09375,-0.570521 6.88399,-1.967397 8.42274,-3.10417 4.05785,-2.997767 11.59301,-3.329977 19.16305,-0.844863 7.41019,2.432643 11.47992,2.509992 13.51891,0.256938 2.09512,-2.315088 1.95749,-3.815409 -0.71016,-7.741213 -1.24395,-1.830625 -2.71754,-5.021205 -3.27466,-7.090176 -0.66011,-2.45147 -2.4847,-5.141222 -5.23828,-7.722082 -2.32394,-2.178173 -4.22693,-4.67537 -4.22886,-5.549324 -0.009,-4.221255 -7.24076,-11.420198 -11.48087,-11.429256 -1.3226,-0.0028 -1.64062,0.823271 -1.64062,4.261802 0,2.345919 0.62926,5.482157 1.39835,6.969419 1.3306,2.573091 1.28057,2.796765 -1.0326,4.616306 -3.01401,2.370815 -7.71768,3.311293 -12.28018,2.455364 -2.6261,-0.492661 -5.32169,-2.443186 -11.01563,-7.970889 -9.26457,-8.994105 -16.98882,-14.045613 -25.98158,-16.9914334 -5.94096,-1.9461182 -8.58051,-2.2409503 -19.52586,-2.180992 -10.26051,0.056207 -13.68435,0.4341952 -18.08749,1.9968407 -3.07268,1.0904747 -5.28359,1.484576 -5.09124,0.9075294 0.18699,-0.5609894 2.63105,-1.8705607 5.43124,-2.9101584 4.24445,-1.5757981 7.35219,-1.8890742 18.68499,-1.8835437 12.52162,0.00611 14.12092,0.2077702 20.27777,2.5568622 10.41305,3.9730108 15.18769,7.0389872 23.78473,15.2731142 4.38281,4.197794 8.89024,8.113611 10.01649,8.701814 4.67257,2.440309 14.32127,-0.13979 12.89075,-3.447032 -1.0499,-2.427263 -1.52238,-12.684969 -0.64355,-13.971562 1.28432,-1.880222 7.71425,0.653497 11.65238,4.591627 1.9042,1.904199 3.85087,4.860666 4.32594,6.569928 0.47507,1.709262 2.58447,4.823725 4.68757,6.921027 2.1031,2.097301 4.11349,5.050426 4.46752,6.5625 0.35405,1.512073 1.85797,4.684594 3.34206,7.050048 3.26443,5.2031 3.41292,8.294773 0.52854,11.004506 -2.77947,2.611175 -6.97855,2.626549 -15.30096,0.05601 -8.35371,-2.580198 -12.43135,-2.453417 -17.54882,0.545621 -2.28214,1.33742 -6.83243,2.895341 -10.11175,3.462045 -8.27162,1.42943 -10.55977,2.833017 -14.61934,8.967741 -5.52894,8.355193 -13.18795,10.010693 -19.95812,4.313962 -3.89868,-3.280521 -3.5407,-6.3398 0.76705,-6.555211 3.68105,-0.184072 7.81225,-2.656763 7.18496,-4.300497 -0.32189,-0.843479 -2.73366,-1.089196 -8.64173,-0.880442 -4.50739,0.159262 -10.57871,-0.08664 -13.49185,-0.546457 -6.6608,-1.05135 -9.58709,-0.09042 -16.37547,5.377336 -7.30881,5.886948 -7.80675,7.140833 -3.54314,8.92228 1.88179,0.786263 5.79379,2.045894 8.69333,2.799181 6.32661,1.643623 8.57786,4.092609 10.943,11.904132 2.09419,6.916647 1.23346,10.476737 -2.64149,10.925608 -1.77565,0.20569 -2.56087,-0.13134 -2.56087,-1.099173 z m -22.5,-32.511136 c 0,-1.442105 9.28681,-9.200415 15,-12.531175 3.35156,-1.953944 7.35937,-4.491525 8.90625,-5.63907 4.52959,-3.360257 5.90187,-3.757319 2.34375,-0.678143 -1.80469,1.561763 -6.61024,4.825416 -10.67901,7.252562 -4.06877,2.427146 -9.23673,6.175044 -11.48437,8.328663 -2.24764,2.153618 -4.08662,3.623841 -4.08662,3.267163 z M 226.01152,50.078125 c 0.045,-1.092134 0.26713,-1.314281 0.5664,-0.566406 0.27081,0.676758 0.23751,1.485351 -0.074,1.796875 -0.31153,0.311523 -0.5331,-0.242188 -0.4924,-1.230469 z M 217.96875,38.4375 c -0.31868,-0.515625 0.1032,-0.9375 0.9375,-0.9375 0.8343,0 1.25618,0.421875 0.9375,0.9375 -0.31868,0.515625 -0.74055,0.9375 -0.9375,0.9375 -0.19695,0 -0.61882,-0.421875 -0.9375,-0.9375 z M 208.8086,27.558593 c -0.37599,-0.375976 -0.6836,-1.695703 -0.6836,-2.932725 0,-1.237023 -0.46397,-3.116059 -1.03103,-4.175636 -0.64785,-1.210509 -0.67327,-1.705389 -0.0684,-1.331559 0.52945,0.327218 1.44922,2.069305 2.04393,3.871305 1.10539,3.349348 0.9657,5.795229 -0.26091,4.568615 z"
       style="fill:#9de2bd" />
    <path
       id="path3354"
       d="m 131.25,99.083316 c 0,-0.744553 -0.63281,-1.878919 -1.40625,-2.520816 -0.77344,-0.641897 -1.40625,-1.767938 -1.40625,-2.502309 0,-1.061004 0.47529,-0.989294 2.31429,0.349171 1.27286,0.92641 2.32754,2.211732 2.34375,2.856263 0.0467,1.859091 1.71829,1.360331 2.37495,-0.708628 0.87152,-2.7459 -1.97452,-11.597265 -4.81396,-14.971747 -3.23276,-3.841915 -2.09939,-4.846554 1.32819,-1.177325 3.46688,3.711304 6.49189,13.414628 5.27089,16.907425 -0.98942,2.83035 -6.00561,4.30703 -6.00561,1.767966 z m 22.96875,-24.460674 c -6.53082,-2.882773 -8.13502,-8.401757 -2.524,-8.683385 3.67293,-0.18435 7.80062,-2.659748 7.171,-4.300497 -0.31874,-0.830621 -3.36937,-1.182555 -10.51673,-1.213256 -13.46909,-0.05786 -19.91152,-0.514738 -19.91152,-1.412078 0,-0.407886 7.05062,-0.561957 15.66803,-0.342379 16.72065,0.426053 18.41515,0.952939 16.22512,5.045045 -1.32554,2.476791 -3.92831,3.783908 -7.53464,3.783908 -3.69256,0 -3.34014,1.55541 1.02626,4.529433 4.5219,3.079936 8.80121,2.283959 12.83595,-2.387561 7.82641,-9.061614 9.30566,-10.462492 11.48256,-10.874167 1.28038,-0.242136 4.85922,-0.907035 7.95297,-1.477555 3.09375,-0.570521 6.88399,-1.967397 8.42274,-3.10417 4.05785,-2.997767 11.59301,-3.329977 19.16305,-0.844863 7.41019,2.432643 11.47992,2.509992 13.51891,0.256938 2.09512,-2.315088 1.95749,-3.815409 -0.71016,-7.741213 -1.24395,-1.830625 -2.71754,-5.021205 -3.27466,-7.090176 -0.66011,-2.45147 -2.4847,-5.141222 -5.23828,-7.722082 -2.32394,-2.178173 -4.22693,-4.67537 -4.22886,-5.549324 -0.009,-4.221255 -7.24076,-11.420198 -11.48087,-11.429256 -1.3226,-0.0028 -1.64062,0.823271 -1.64062,4.261802 0,2.345919 0.62926,5.482157 1.39835,6.969419 1.3306,2.573091 1.28057,2.796765 -1.0326,4.616306 -3.00442,2.363267 -7.71483,3.311827 -12.23505,2.46383 -2.57143,-0.482404 -5.45061,-2.57193 -11.48438,-8.334642 C 163.29172,10.691108 152.70426,5.640601 137.10937,4.8843701 132.14732,4.6437488 128.4375,4.0570074 128.4375,3.5128348 c 0,-0.610969 3.26834,-0.7785845 9.14062,-0.4687732 15.6557,0.8259669 26.94233,5.9898498 39.60938,18.1221634 4.38281,4.197794 8.89024,8.113611 10.01649,8.701814 4.67257,2.440309 14.32127,-0.13979 12.89075,-3.447032 -1.0499,-2.427263 -1.52238,-12.684969 -0.64355,-13.971562 1.28432,-1.880222 7.71425,0.653497 11.65238,4.591627 1.9042,1.904199 3.85087,4.860666 4.32594,6.569928 0.47507,1.709262 2.58447,4.823725 4.68757,6.921027 2.1031,2.097301 4.11349,5.050426 4.46752,6.5625 0.35405,1.512073 1.85797,4.684594 3.34206,7.050048 3.26443,5.2031 3.41292,8.294773 0.52854,11.004506 -2.77947,2.611175 -6.97855,2.626549 -15.30096,0.05601 -8.35371,-2.580198 -12.43135,-2.453417 -17.54882,0.545621 -2.28214,1.33742 -6.83243,2.895341 -10.11175,3.462045 -8.28454,1.431662 -10.70037,2.90941 -14.52141,8.882673 -4.63283,7.242276 -10.21051,9.415351 -16.75351,6.527203 z M 128.44911,51.855128 c 0.006,-0.418758 1.58261,-1.816066 3.50273,-3.105128 5.4497,-3.658619 6.16232,-4.059051 5.59763,-3.145361 -0.86794,1.404357 -9.11281,7.06726 -9.10036,6.250489 z m 97.56241,-1.777003 c 0.045,-1.092134 0.26713,-1.314281 0.5664,-0.566406 0.27081,0.676758 0.23751,1.485351 -0.074,1.796875 -0.31153,0.311523 -0.5331,-0.242188 -0.4924,-1.230469 z M 217.96875,38.4375 c -0.31868,-0.515625 0.1032,-0.9375 0.9375,-0.9375 0.8343,0 1.25618,0.421875 0.9375,0.9375 -0.31868,0.515625 -0.74055,0.9375 -0.9375,0.9375 -0.19695,0 -0.61882,-0.421875 -0.9375,-0.9375 z M 208.8086,27.558593 c -0.37599,-0.375976 -0.6836,-1.695703 -0.6836,-2.932725 0,-1.237023 -0.46397,-3.116059 -1.03103,-4.175636 -0.64785,-1.210509 -0.67327,-1.705389 -0.0684,-1.331559 0.52945,0.327218 1.44922,2.069305 2.04393,3.871305 1.10539,3.349348 0.9657,5.795229 -0.26091,4.568615 z"
       style="fill:#98e0c2" />
    <path
       id="path3352"
       d="m 154.05514,74.569564 c -3.39038,-1.474738 -6.38819,-5.461173 -5.61738,-7.469877 0.30366,-0.791323 1.68643,-1.319095 3.33336,-1.272269 3.31622,0.09429 7.73609,-2.514294 7.09707,-4.188658 -0.31444,-0.823898 -2.38551,-1.077919 -7.00111,-0.858705 -3.95226,0.18771 -6.55458,-0.0609 -6.55458,-0.626194 0,-0.515625 3.05859,-1.091909 6.79687,-1.280632 5.15811,-0.260401 7.07942,-0.0097 7.96875,1.039753 1.64435,1.940433 1.489,2.667629 -1.12926,5.285882 -1.59767,1.59767 -3.34113,2.301136 -5.70312,2.301136 -4.14717,0 -3.96431,1.436595 0.57653,4.529433 4.5219,3.079936 8.80121,2.283959 12.83595,-2.387561 7.82641,-9.061614 9.30566,-10.462492 11.48256,-10.874167 1.28038,-0.242136 4.85922,-0.907035 7.95297,-1.477555 3.09375,-0.570521 6.88399,-1.967397 8.42274,-3.10417 4.05785,-2.997767 11.59301,-3.329977 19.16305,-0.844863 7.41019,2.432643 11.47992,2.509992 13.51891,0.256938 2.09512,-2.315088 1.95749,-3.815409 -0.71016,-7.741213 -1.24395,-1.830625 -2.71754,-5.021205 -3.27466,-7.090176 -0.66011,-2.45147 -2.4847,-5.141222 -5.23828,-7.722082 -2.32394,-2.178173 -4.22693,-4.67537 -4.22886,-5.549324 -0.009,-4.221255 -7.24076,-11.420198 -11.48087,-11.429256 -1.3226,-0.0028 -1.64062,0.823271 -1.64062,4.261802 0,2.345919 0.62926,5.482157 1.39835,6.969419 1.3306,2.573091 1.28057,2.796765 -1.0326,4.616306 -3.01401,2.370815 -7.71768,3.311293 -12.28018,2.455364 -2.6261,-0.492661 -5.32169,-2.443186 -11.01563,-7.970889 -9.14499,-8.878023 -16.70457,-13.860831 -25.64803,-16.90562 -6.51116,-2.2167146 -9.40854,-4.4194393 -4.15629,-3.1598027 11.1734,2.6796913 19.53581,7.4846317 29.29688,16.8336417 4.38281,4.197794 8.89024,8.113611 10.01649,8.701814 4.67257,2.440309 14.32127,-0.13979 12.89075,-3.447032 -1.0499,-2.427263 -1.52238,-12.684969 -0.64355,-13.971562 1.28432,-1.880222 7.71425,0.653498 11.65238,4.591628 1.9042,1.904198 3.85087,4.860665 4.32594,6.569927 0.47507,1.709263 2.58447,4.823725 4.68757,6.921027 2.1031,2.097301 4.11349,5.050426 4.46752,6.5625 0.35405,1.512073 1.85797,4.684594 3.34206,7.050048 3.26443,5.2031 3.41292,8.294773 0.52854,11.004506 -2.77947,2.611175 -6.97855,2.626549 -15.30096,0.05601 -8.35371,-2.580198 -12.43135,-2.453417 -17.54882,0.545621 -2.28214,1.33742 -6.83243,2.895341 -10.11175,3.462046 -8.28454,1.431661 -10.70037,2.909409 -14.52141,8.882672 -4.67018,7.300651 -10.17436,9.407083 -16.91712,6.474125 z m 71.95638,-24.491439 c 0.045,-1.092134 0.26713,-1.314281 0.5664,-0.566406 0.27081,0.676758 0.23751,1.485351 -0.074,1.796875 -0.31153,0.311523 -0.5331,-0.242188 -0.4924,-1.230469 z M 217.96875,38.4375 c -0.31868,-0.515625 0.1032,-0.9375 0.9375,-0.9375 0.8343,0 1.25618,0.421875 0.9375,0.9375 -0.31868,0.515625 -0.74055,0.9375 -0.9375,0.9375 -0.19695,0 -0.61882,-0.421875 -0.9375,-0.9375 z M 208.8086,27.558593 c -0.37599,-0.375976 -0.6836,-1.695703 -0.6836,-2.932725 0,-1.237023 -0.46397,-3.116059 -1.03103,-4.175636 -0.64785,-1.210509 -0.67327,-1.705389 -0.0684,-1.331559 0.52945,0.327218 1.44922,2.069305 2.04393,3.871305 1.10539,3.349348 0.9657,5.795229 -0.26091,4.568615 z"
       style="fill:#8adcce" />
    <path
       id="path3350"
       d="m 170.625,65.987367 c 0,-1.933128 5.27302,-6.841915 7.8438,-7.30199 10.94017,-1.957888 13.62727,-2.711291 16.04769,-4.499397 4.05785,-2.997767 11.59301,-3.329977 19.16305,-0.844862 7.41019,2.432642 11.47992,2.509991 13.51891,0.256937 2.09512,-2.315088 1.95749,-3.815409 -0.71016,-7.741213 -1.24395,-1.830625 -2.71754,-5.021205 -3.27466,-7.090176 -0.66011,-2.45147 -2.4847,-5.141222 -5.23828,-7.722082 -2.32394,-2.178173 -4.22693,-4.67537 -4.22886,-5.549324 -0.009,-4.221255 -7.24076,-11.420198 -11.48087,-11.429256 -1.3226,-0.0028 -1.64062,0.823271 -1.64062,4.261802 0,2.345919 0.62926,5.482157 1.39835,6.969419 1.3306,2.573091 1.28057,2.796765 -1.0326,4.616306 -3.01753,2.37359 -7.71873,3.311096 -12.2969,2.452227 -2.72976,-0.512106 -5.09547,-2.303082 -10.81957,-8.191019 -4.02925,-4.144583 -7.0854,-7.776126 -6.79142,-8.070095 0.29397,-0.293969 3.58074,2.454145 7.30394,6.106921 3.72319,3.652776 7.69094,7.110428 8.81719,7.683672 4.72198,2.403401 14.31478,-0.181988 12.89075,-3.47423 -1.0499,-2.427263 -1.52238,-12.684969 -0.64355,-13.971562 1.28432,-1.880222 7.71425,0.653498 11.65238,4.591628 1.9042,1.904198 3.85087,4.860665 4.32594,6.569927 0.47507,1.709263 2.58447,4.823725 4.68757,6.921027 2.1031,2.097301 4.11349,5.050426 4.46752,6.5625 0.35405,1.512073 1.85797,4.684594 3.34206,7.050048 3.26443,5.2031 3.41292,8.294773 0.52854,11.004506 -2.77947,2.611175 -6.97855,2.626549 -15.30096,0.05601 -8.3135,-2.567778 -12.43647,-2.450418 -17.46614,0.49717 -2.23667,1.310772 -7.41977,3.016551 -11.51801,3.790621 -6.43227,1.214918 -7.86804,1.856813 -10.49822,4.693486 -2.02229,2.18106 -3.04687,2.786687 -3.04687,1.80099 z m 55.38652,-15.909242 c 0.045,-1.092134 0.26713,-1.314281 0.5664,-0.566406 0.27081,0.676758 0.23751,1.485351 -0.074,1.796875 -0.31153,0.311523 -0.5331,-0.242188 -0.4924,-1.230469 z M 217.96875,38.4375 c -0.31868,-0.515625 0.1032,-0.9375 0.9375,-0.9375 0.8343,0 1.25618,0.421875 0.9375,0.9375 -0.31868,0.515625 -0.74055,0.9375 -0.9375,0.9375 -0.19695,0 -0.61882,-0.421875 -0.9375,-0.9375 z M 208.8086,27.558593 c -0.37599,-0.375976 -0.6836,-1.695703 -0.6836,-2.932725 0,-1.237023 -0.46397,-3.116059 -1.03103,-4.175636 -0.64785,-1.210509 -0.67327,-1.705389 -0.0684,-1.331559 0.52945,0.327218 1.44922,2.069305 2.04393,3.871305 1.10539,3.349348 0.9657,5.795229 -0.26091,4.568615 z"
       style="fill:#79d7da" />
    <path
       id="path3348"
       d="m 211.875,54.894504 c -4.17348,-1.284377 -8.26962,-1.970349 -10.07813,-1.687762 -1.92194,0.300312 -3.04687,0.08467 -3.04687,-0.584078 0,-1.693306 8.28031,-1.232187 14.84915,0.826931 7.43893,2.331861 11.58242,2.377095 13.5993,0.14846 2.09512,-2.315088 1.95749,-3.815409 -0.71016,-7.741213 -1.24395,-1.830625 -2.72452,-5.047161 -3.29018,-7.147857 -0.66727,-2.478022 -2.37742,-5.038136 -4.86933,-7.289429 -2.18154,-1.970886 -4.22776,-4.871236 -4.73643,-6.713488 -1.1619,-4.208043 -5.03244,-8.374531 -9.45173,-10.174399 l -3.51562,-1.431831 0.006,4.934456 c 0.003,2.713951 0.59589,6.065525 1.31713,7.447943 1.17788,2.257691 1.12901,2.678494 -0.48028,4.134878 -2.03151,1.838493 -3.5609,1.122346 -1.89357,-0.886675 0.77987,-0.939683 0.81799,-2.033596 0.13361,-3.833687 -1.03225,-2.714986 -1.28725,-9.822001 -0.43237,-12.049791 0.42968,-1.119745 1.22533,-1.1912 4.37158,-0.392598 4.71298,1.196283 10.59371,6.814156 11.51266,10.998056 0.38517,1.75368 2.35707,4.641603 4.70633,6.892585 2.22387,2.130841 4.34018,5.139766 4.70293,6.6865 0.36273,1.546734 1.87378,4.747616 3.35787,7.11307 3.26443,5.2031 3.41292,8.294773 0.52854,11.004506 -2.81374,2.643376 -7.39196,2.573081 -16.5802,-0.254577 z m 14.13652,-4.816379 c 0.045,-1.092134 0.26713,-1.314281 0.5664,-0.566406 0.27081,0.676758 0.23751,1.485351 -0.074,1.796875 -0.31153,0.311523 -0.5331,-0.242188 -0.4924,-1.230469 z M 217.96875,38.4375 c -0.31868,-0.515625 0.1032,-0.9375 0.9375,-0.9375 0.8343,0 1.25618,0.421875 0.9375,0.9375 -0.31868,0.515625 -0.74055,0.9375 -0.9375,0.9375 -0.19695,0 -0.61882,-0.421875 -0.9375,-0.9375 z m -9.14879,-11.25 c -0.29299,-0.773438 -0.75058,-2.882813 -1.01688,-4.6875 l -0.48418,-3.28125 1.38812,3.156848 c 0.76345,1.736267 1.22105,3.845642 1.01688,4.6875 -0.31658,1.305304 -0.44966,1.323619 -0.90394,0.124402 z"
       style="fill:#6bd2e6" />
  </g>
</svg>
