<?xml version="1.0" encoding="utf-8"?>
<!-- Generator: Adobe Illustrator 21.1.0, SVG Export Plug-In . SVG Version: 6.00 Build 0)  -->
<!DOCTYPE svg PUBLIC "-//W3C//DTD SVG 1.1//EN" "http://www.w3.org/Graphics/SVG/1.1/DTD/svg11.dtd">
<svg version="1.1" id="Layer_1" xmlns="http://www.w3.org/2000/svg" xmlns:xlink="http://www.w3.org/1999/xlink" x="0px" y="0px"
	 viewBox="0 0 50 50" style="enable-background:new 0 0 50 50;" xml:space="preserve">
<g id="g-icon-azure-projects">
	<g>
		<g>
			<path style="fill:#D0D1D3;" d="M46.6,41.6H3.2L24.9,4.1L46.6,41.6z M11,37.1h27.7l-13.9-24L11,37.1z"/>
		</g>
		<path style="fill:#59B4D9;" d="M24.9,3.4c5.1,0,9.2,4.1,9.2,9.2s-4.1,9.2-9.2,9.2s-9.2-4.1-9.2-9.2C15.7,7.5,19.8,3.4,24.9,3.4z"
			/>
		<path style="fill:#59B4D9;" d="M39,28.2c5.1,0,9.2,4.1,9.2,9.2c0,5.1-4.1,9.2-9.2,9.2c-5.1,0-9.2-4.1-9.2-9.2S33.9,28.2,39,28.2z"
			/>
		<path style="fill:#59B4D9;" d="M11,28.2c5.1,0,9.2,4.1,9.2,9.2c0,5.1-4.1,9.2-9.2,9.2c-5.1,0-9.2-4.1-9.2-9.2S5.9,28.2,11,28.2z"
			/>
	</g>
</g>
</svg>
