<?xml version="1.0" encoding="utf-8"?>
<!-- Generator: Adobe Illustrator 21.1.0, SVG Export Plug-In . SVG Version: 6.00 Build 0)  -->
<!DOCTYPE svg PUBLIC "-//W3C//DTD SVG 1.1//EN" "http://www.w3.org/Graphics/SVG/1.1/DTD/svg11.dtd">
<svg version="1.1" id="Layer_1" xmlns="http://www.w3.org/2000/svg" xmlns:xlink="http://www.w3.org/1999/xlink" x="0px" y="0px"
	 viewBox="0 0 50 50" style="enable-background:new 0 0 50 50;" xml:space="preserve">
<g id="g-icon-azure-projects">
</g>
<g>
	<path style="fill:#3999C6;" d="M25.1,23.3c-0.1,0-0.2,0-0.3-0.1l-17.5-10C7.1,13.1,7,12.9,7,12.8c0-0.2,0.1-0.4,0.3-0.5l17.4-10
		c0.2-0.1,0.4-0.1,0.5,0l17.5,10c0.2,0.1,0.3,0.3,0.3,0.5c0,0.2-0.1,0.4-0.3,0.5l-17.4,10C25.2,23.3,25.2,23.3,25.1,23.3"/>
	<path style="fill:#59B4D9;" d="M22.5,47.7c-0.1,0-0.2,0-0.3-0.1l-17.5-10c-0.2-0.1-0.3-0.3-0.3-0.5V17.1c0-0.2,0.1-0.4,0.3-0.5
		c0.2-0.1,0.4-0.1,0.5,0l17.5,10c0.2,0.1,0.3,0.3,0.3,0.5v20.1c0,0.2-0.1,0.4-0.3,0.5C22.7,47.7,22.6,47.7,22.5,47.7"/>
	<path style="fill:#B1D9ED;" d="M27.5,47.7c-0.1,0-0.2,0-0.3-0.1c-0.2-0.1-0.3-0.3-0.3-0.5v-20c0-0.2,0.1-0.4,0.3-0.5l17.5-10
		c0.2-0.1,0.4-0.1,0.5,0c0.2,0.1,0.3,0.3,0.3,0.5v20c0,0.2-0.1,0.4-0.3,0.5l-17.5,10C27.7,47.7,27.6,47.7,27.5,47.7"/>
</g>
</svg>
